<?xml version="1.0" encoding="UTF-8" standalone="no" ?>
<!DOCTYPE svg PUBLIC "-//W3C//DTD SVG 1.1//EN" "http://www.w3.org/Graphics/SVG/1.1/DTD/svg11.dtd">
<svg xmlns="http://www.w3.org/2000/svg" xmlns:xlink="http://www.w3.org/1999/xlink" version="1.1" width="1080" height="1080" viewBox="0 0 1080 1080" xml:space="preserve">
<desc>Created with Fabric.js 5.2.4</desc>
<defs>
</defs>
<g transform="matrix(1 0 0 1 540 540)" id="46879857-0748-4348-9ae8-f07919b30aa4"  >
<rect style="stroke: none; stroke-width: 1; stroke-dasharray: none; stroke-linecap: butt; stroke-dashoffset: 0; stroke-linejoin: miter; stroke-miterlimit: 4; fill: rgb(255,255,255); fill-rule: nonzero; opacity: 1; visibility: hidden;" vector-effect="non-scaling-stroke"  x="-540" y="-540" rx="0" ry="0" width="1080" height="1080" />
</g>
<g transform="matrix(1 0 0 1 540 540)" id="238d47af-455f-4fbb-98b9-ad5fb2553681"  >
</g>
<g transform="matrix(1 0 0 1 957.15 399.87)"  >
<path style="stroke: none; stroke-width: 1; stroke-dasharray: none; stroke-linecap: butt; stroke-dashoffset: 0; stroke-linejoin: miter; stroke-miterlimit: 4; fill: rgb(0,0,0); fill-rule: nonzero; opacity: 1;" vector-effect="non-scaling-stroke"  transform=" translate(-842.34, -284.69)" d="M 850.34 294 C 850.0476015677242 287.27191034854457 848.1992007933563 280.70324167074494 844.94 274.81 L 834.34 280.65 C 836.7041955555792 284.92079638002184 838.0427859919458 289.6828917687328 838.25 294.56 Z" stroke-linecap="round" />
</g>
<g transform="matrix(1 0 0 1 831.64 373.24)"  >
<rect style="stroke: none; stroke-width: 1; stroke-dasharray: none; stroke-linecap: butt; stroke-dashoffset: 0; stroke-linejoin: miter; stroke-miterlimit: 4; fill: rgb(0,0,0); fill-rule: nonzero; opacity: 1;" vector-effect="non-scaling-stroke"  x="-8.675" y="-6.05" rx="0" ry="0" width="17.35" height="12.1" />
</g>
<g transform="matrix(1 0 0 1 866.34 373.24)"  >
<rect style="stroke: none; stroke-width: 1; stroke-dasharray: none; stroke-linecap: butt; stroke-dashoffset: 0; stroke-linejoin: miter; stroke-miterlimit: 4; fill: rgb(0,0,0); fill-rule: nonzero; opacity: 1;" vector-effect="non-scaling-stroke"  x="-8.675" y="-6.05" rx="0" ry="0" width="17.35" height="12.1" />
</g>
<g transform="matrix(1 0 0 1 959.15 504.91)"  >
<rect style="stroke: none; stroke-width: 1; stroke-dasharray: none; stroke-linecap: butt; stroke-dashoffset: 0; stroke-linejoin: miter; stroke-miterlimit: 4; fill: rgb(0,0,0); fill-rule: nonzero; opacity: 1;" vector-effect="non-scaling-stroke"  x="-6.05" y="-8.675" rx="0" ry="0" width="12.1" height="17.35" />
</g>
<g transform="matrix(1 0 0 1 954.62 539.7)"  >
<path style="stroke: none; stroke-width: 1; stroke-dasharray: none; stroke-linecap: butt; stroke-dashoffset: 0; stroke-linejoin: miter; stroke-miterlimit: 4; fill: rgb(0,0,0); fill-rule: nonzero; opacity: 1;" vector-effect="non-scaling-stroke"  transform=" translate(-839.8, -424.51)" d="M 830.6 427 L 839.7900000000001 434.88 C 844.1724053293683 429.7500153750117 847.3228091789765 423.6852314169711 849 417.15 L 837.28 414.15 C 836.0629394936839 418.8869048626821 833.7779412347508 423.28244792065976 830.6 427 Z" stroke-linecap="round" />
</g>
<g transform="matrix(1 0 0 1 959.15 435.51)"  >
<rect style="stroke: none; stroke-width: 1; stroke-dasharray: none; stroke-linecap: butt; stroke-dashoffset: 0; stroke-linejoin: miter; stroke-miterlimit: 4; fill: rgb(0,0,0); fill-rule: nonzero; opacity: 1;" vector-effect="non-scaling-stroke"  x="-6.05" y="-8.675" rx="0" ry="0" width="12.1" height="17.35" />
</g>
<g transform="matrix(1 0 0 1 893.23 559.38)"  >
<rect style="stroke: none; stroke-width: 1; stroke-dasharray: none; stroke-linecap: butt; stroke-dashoffset: 0; stroke-linejoin: miter; stroke-miterlimit: 4; fill: rgb(0,0,0); fill-rule: nonzero; opacity: 1;" vector-effect="non-scaling-stroke"  x="-8.675" y="-6.05" rx="0" ry="0" width="17.35" height="12.1" />
</g>
<g transform="matrix(1 0 0 1 959.15 470.21)"  >
<rect style="stroke: none; stroke-width: 1; stroke-dasharray: none; stroke-linecap: butt; stroke-dashoffset: 0; stroke-linejoin: miter; stroke-miterlimit: 4; fill: rgb(0,0,0); fill-rule: nonzero; opacity: 1;" vector-effect="non-scaling-stroke"  x="-6.05" y="-8.675" rx="0" ry="0" width="12.1" height="17.35" />
</g>
<g transform="matrix(1 0 0 1 936.3 376.42)"  >
<path style="stroke: none; stroke-width: 1; stroke-dasharray: none; stroke-linecap: butt; stroke-dashoffset: 0; stroke-linejoin: miter; stroke-miterlimit: 4; fill: rgb(0,0,0); fill-rule: nonzero; opacity: 1;" vector-effect="non-scaling-stroke"  transform=" translate(-821.48, -261.24)" d="M 813.15 252.53 L 811.28 264.53 C 816.0995175927436 265.2924367064952 820.6820771663478 267.14255963882346 824.68 269.94 L 831.68 260.05 C 826.1608359449028 256.1571634960019 819.8211130166301 253.58432396979515 813.15 252.53 Z" stroke-linecap="round" />
</g>
<g transform="matrix(1 0 0 1 901.04 373.24)"  >
<rect style="stroke: none; stroke-width: 1; stroke-dasharray: none; stroke-linecap: butt; stroke-dashoffset: 0; stroke-linejoin: miter; stroke-miterlimit: 4; fill: rgb(0,0,0); fill-rule: nonzero; opacity: 1;" vector-effect="non-scaling-stroke"  x="-8.675" y="-6.05" rx="0" ry="0" width="17.35" height="12.1" />
</g>
<g transform="matrix(1 0 0 1 928.9 558.08)"  >
<path style="stroke: none; stroke-width: 1; stroke-dasharray: none; stroke-linecap: butt; stroke-dashoffset: 0; stroke-linejoin: miter; stroke-miterlimit: 4; fill: rgb(0,0,0); fill-rule: nonzero; opacity: 1;" vector-effect="non-scaling-stroke"  transform=" translate(-814.09, -442.89)" d="M 806.3 438.14 L 804.43 438.14 L 804.43 450.24 L 806.3 450.24 C 812.3016153762012 450.25569829773883 818.2419899595649 449.0335811198434 823.75 446.65000000000003 L 819 435.54 C 814.9894958484965 437.2675798064254 810.6667514248626 438.152551105752 806.3 438.14 Z" stroke-linecap="round" />
</g>
<g transform="matrix(1 0 0 1 697.79 199.63)"  >
<rect style="stroke: none; stroke-width: 1; stroke-dasharray: none; stroke-linecap: butt; stroke-dashoffset: 0; stroke-linejoin: miter; stroke-miterlimit: 4; fill: rgb(0,0,0); fill-rule: nonzero; opacity: 1;" vector-effect="non-scaling-stroke"  x="-4.405" y="-6.05" rx="0" ry="0" width="8.81" height="12.1" />
</g>
<g transform="matrix(1 0 0 1 441.74 373.24)"  >
<rect style="stroke: none; stroke-width: 1; stroke-dasharray: none; stroke-linecap: butt; stroke-dashoffset: 0; stroke-linejoin: miter; stroke-miterlimit: 4; fill: rgb(0,0,0); fill-rule: nonzero; opacity: 1;" vector-effect="non-scaling-stroke"  x="-8.95" y="-6.05" rx="0" ry="0" width="17.9" height="12.1" />
</g>
<g transform="matrix(1 0 0 1 477.52 373.24)"  >
<rect style="stroke: none; stroke-width: 1; stroke-dasharray: none; stroke-linecap: butt; stroke-dashoffset: 0; stroke-linejoin: miter; stroke-miterlimit: 4; fill: rgb(0,0,0); fill-rule: nonzero; opacity: 1;" vector-effect="non-scaling-stroke"  x="-8.95" y="-6.05" rx="0" ry="0" width="17.9" height="12.1" />
</g>
<g transform="matrix(1 0 0 1 451.79 199.63)"  >
<rect style="stroke: none; stroke-width: 1; stroke-dasharray: none; stroke-linecap: butt; stroke-dashoffset: 0; stroke-linejoin: miter; stroke-miterlimit: 4; fill: rgb(0,0,0); fill-rule: nonzero; opacity: 1;" vector-effect="non-scaling-stroke"  x="-8.95" y="-6.05" rx="0" ry="0" width="17.9" height="12.1" />
</g>
<g transform="matrix(1 0 0 1 415.99 199.63)"  >
<rect style="stroke: none; stroke-width: 1; stroke-dasharray: none; stroke-linecap: butt; stroke-dashoffset: 0; stroke-linejoin: miter; stroke-miterlimit: 4; fill: rgb(0,0,0); fill-rule: nonzero; opacity: 1;" vector-effect="non-scaling-stroke"  x="-8.95" y="-6.05" rx="0" ry="0" width="17.9" height="12.1" />
</g>
<g transform="matrix(1 0 0 1 370.14 373.24)"  >
<rect style="stroke: none; stroke-width: 1; stroke-dasharray: none; stroke-linecap: butt; stroke-dashoffset: 0; stroke-linejoin: miter; stroke-miterlimit: 4; fill: rgb(0,0,0); fill-rule: nonzero; opacity: 1;" vector-effect="non-scaling-stroke"  x="-8.95" y="-6.05" rx="0" ry="0" width="17.9" height="12.1" />
</g>
<g transform="matrix(1 0 0 1 405.94 373.24)"  >
<rect style="stroke: none; stroke-width: 1; stroke-dasharray: none; stroke-linecap: butt; stroke-dashoffset: 0; stroke-linejoin: miter; stroke-miterlimit: 4; fill: rgb(0,0,0); fill-rule: nonzero; opacity: 1;" vector-effect="non-scaling-stroke"  x="-8.95" y="-6.05" rx="0" ry="0" width="17.9" height="12.1" />
</g>
<g transform="matrix(1 0 0 1 380.19 199.63)"  >
<rect style="stroke: none; stroke-width: 1; stroke-dasharray: none; stroke-linecap: butt; stroke-dashoffset: 0; stroke-linejoin: miter; stroke-miterlimit: 4; fill: rgb(0,0,0); fill-rule: nonzero; opacity: 1;" vector-effect="non-scaling-stroke"  x="-8.95" y="-6.05" rx="0" ry="0" width="17.9" height="12.1" />
</g>
<g transform="matrix(1 0 0 1 487.57 199.63)"  >
<rect style="stroke: none; stroke-width: 1; stroke-dasharray: none; stroke-linecap: butt; stroke-dashoffset: 0; stroke-linejoin: miter; stroke-miterlimit: 4; fill: rgb(0,0,0); fill-rule: nonzero; opacity: 1;" vector-effect="non-scaling-stroke"  x="-8.95" y="-6.05" rx="0" ry="0" width="17.9" height="12.1" />
</g>
<g transform="matrix(1 0 0 1 666.54 199.63)"  >
<rect style="stroke: none; stroke-width: 1; stroke-dasharray: none; stroke-linecap: butt; stroke-dashoffset: 0; stroke-linejoin: miter; stroke-miterlimit: 4; fill: rgb(0,0,0); fill-rule: nonzero; opacity: 1;" vector-effect="non-scaling-stroke"  x="-8.95" y="-6.05" rx="0" ry="0" width="17.9" height="12.1" />
</g>
<g transform="matrix(1 0 0 1 630.75 199.63)"  >
<rect style="stroke: none; stroke-width: 1; stroke-dasharray: none; stroke-linecap: butt; stroke-dashoffset: 0; stroke-linejoin: miter; stroke-miterlimit: 4; fill: rgb(0,0,0); fill-rule: nonzero; opacity: 1;" vector-effect="non-scaling-stroke"  x="-8.95" y="-6.05" rx="0" ry="0" width="17.9" height="12.1" />
</g>
<g transform="matrix(1 0 0 1 594.96 199.63)"  >
<rect style="stroke: none; stroke-width: 1; stroke-dasharray: none; stroke-linecap: butt; stroke-dashoffset: 0; stroke-linejoin: miter; stroke-miterlimit: 4; fill: rgb(0,0,0); fill-rule: nonzero; opacity: 1;" vector-effect="non-scaling-stroke"  x="-8.95" y="-6.05" rx="0" ry="0" width="17.9" height="12.1" />
</g>
<g transform="matrix(1 0 0 1 523.37 199.63)"  >
<rect style="stroke: none; stroke-width: 1; stroke-dasharray: none; stroke-linecap: butt; stroke-dashoffset: 0; stroke-linejoin: miter; stroke-miterlimit: 4; fill: rgb(0,0,0); fill-rule: nonzero; opacity: 1;" vector-effect="non-scaling-stroke"  x="-8.95" y="-6.05" rx="0" ry="0" width="17.9" height="12.1" />
</g>
<g transform="matrix(1 0 0 1 559.16 199.63)"  >
<rect style="stroke: none; stroke-width: 1; stroke-dasharray: none; stroke-linecap: butt; stroke-dashoffset: 0; stroke-linejoin: miter; stroke-miterlimit: 4; fill: rgb(0,0,0); fill-rule: nonzero; opacity: 1;" vector-effect="non-scaling-stroke"  x="-8.95" y="-6.05" rx="0" ry="0" width="17.9" height="12.1" />
</g>
<g transform="matrix(1 0 0 1 179.14 226.74)"  >
<path style="stroke: none; stroke-width: 1; stroke-dasharray: none; stroke-linecap: butt; stroke-dashoffset: 0; stroke-linejoin: miter; stroke-miterlimit: 4; fill: rgb(0,0,0); fill-rule: nonzero; opacity: 1;" vector-effect="non-scaling-stroke"  transform=" translate(-64.33, -111.56)" d="M 72.3 107.25 L 61.669999999999995 101.47 C 58.36018306479096 107.57925039256364 56.54075241294946 114.38412661583524 56.36 121.33000000000001 L 68.46 121.64 C 68.57288666404882 116.60556404979053 69.88959452319898 111.67133850469396 72.29999999999998 107.25 Z" stroke-linecap="round" />
</g>
<g transform="matrix(1 0 0 1 226.96 373.24)"  >
<rect style="stroke: none; stroke-width: 1; stroke-dasharray: none; stroke-linecap: butt; stroke-dashoffset: 0; stroke-linejoin: miter; stroke-miterlimit: 4; fill: rgb(0,0,0); fill-rule: nonzero; opacity: 1;" vector-effect="non-scaling-stroke"  x="-8.95" y="-6.05" rx="0" ry="0" width="17.9" height="12.1" />
</g>
<g transform="matrix(1 0 0 1 200.6 202.68)"  >
<path style="stroke: none; stroke-width: 1; stroke-dasharray: none; stroke-linecap: butt; stroke-dashoffset: 0; stroke-linejoin: miter; stroke-miterlimit: 4; fill: rgb(0,0,0); fill-rule: nonzero; opacity: 1;" vector-effect="non-scaling-stroke"  transform=" translate(-85.78, -87.49)" d="M 96.17 90.79 L 94.58 78.79 C 87.69344494338628 79.71306794712574 81.1219738506829 82.24846346777251 75.4 86.19000000000001 L 82.28 96.19000000000001 C 86.41942535665368 93.31992414217999 91.17897058906769 91.46956098487001 96.16999999999999 90.79000000000002 Z" stroke-linecap="round" />
</g>
<g transform="matrix(1 0 0 1 344.4 199.63)"  >
<rect style="stroke: none; stroke-width: 1; stroke-dasharray: none; stroke-linecap: butt; stroke-dashoffset: 0; stroke-linejoin: miter; stroke-miterlimit: 4; fill: rgb(0,0,0); fill-rule: nonzero; opacity: 1;" vector-effect="non-scaling-stroke"  x="-8.95" y="-6.05" rx="0" ry="0" width="17.9" height="12.1" />
</g>
<g transform="matrix(1 0 0 1 177.21 263.51)"  >
<rect style="stroke: none; stroke-width: 1; stroke-dasharray: none; stroke-linecap: butt; stroke-dashoffset: 0; stroke-linejoin: miter; stroke-miterlimit: 4; fill: rgb(0,0,0); fill-rule: nonzero; opacity: 1;" vector-effect="non-scaling-stroke"  x="-6.05" y="-8.95" rx="0" ry="0" width="12.1" height="17.9" />
</g>
<g transform="matrix(1 0 0 1 177.64 335.77)"  >
<path style="stroke: none; stroke-width: 1; stroke-dasharray: none; stroke-linecap: butt; stroke-dashoffset: 0; stroke-linejoin: miter; stroke-miterlimit: 4; fill: rgb(0,0,0); fill-rule: nonzero; opacity: 1;" vector-effect="non-scaling-stroke"  transform=" translate(-62.82, -220.58)" d="M 69.3 227.39 C 68.73034318439323 224.9680867222825 68.44508297841934 222.4880009315212 68.45 220 L 68.45 211 L 56.34 211 L 56.34 220 C 56.33976903956403 223.4241650585203 56.7357353820542 226.8368580272703 57.52 230.17 Z" stroke-linecap="round" />
</g>
<g transform="matrix(1 0 0 1 177.21 299.31)"  >
<rect style="stroke: none; stroke-width: 1; stroke-dasharray: none; stroke-linecap: butt; stroke-dashoffset: 0; stroke-linejoin: miter; stroke-miterlimit: 4; fill: rgb(0,0,0); fill-rule: nonzero; opacity: 1;" vector-effect="non-scaling-stroke"  x="-6.05" y="-8.95" rx="0" ry="0" width="12.1" height="17.9" />
</g>
<g transform="matrix(1 0 0 1 192.21 365.87)"  >
<path style="stroke: none; stroke-width: 1; stroke-dasharray: none; stroke-linecap: butt; stroke-dashoffset: 0; stroke-linejoin: miter; stroke-miterlimit: 4; fill: rgb(0,0,0); fill-rule: nonzero; opacity: 1;" vector-effect="non-scaling-stroke"  transform=" translate(-77.39, -250.68)" d="M 76 240.69 L 66.77 248.52 C 71.26245883754655 253.81083449290088 76.93476408484851 257.97258019064964 83.33000000000001 260.67 L 88.02 249.51000000000002 C 83.37962137792277 247.54886074114089 79.26303271383144 244.52820250342992 76 240.69 Z" stroke-linecap="round" />
</g>
<g transform="matrix(1 0 0 1 298.56 373.24)"  >
<rect style="stroke: none; stroke-width: 1; stroke-dasharray: none; stroke-linecap: butt; stroke-dashoffset: 0; stroke-linejoin: miter; stroke-miterlimit: 4; fill: rgb(0,0,0); fill-rule: nonzero; opacity: 1;" vector-effect="non-scaling-stroke"  x="-8.95" y="-6.05" rx="0" ry="0" width="17.9" height="12.1" />
</g>
<g transform="matrix(1 0 0 1 308.61 199.63)"  >
<rect style="stroke: none; stroke-width: 1; stroke-dasharray: none; stroke-linecap: butt; stroke-dashoffset: 0; stroke-linejoin: miter; stroke-miterlimit: 4; fill: rgb(0,0,0); fill-rule: nonzero; opacity: 1;" vector-effect="non-scaling-stroke"  x="-8.95" y="-6.05" rx="0" ry="0" width="17.9" height="12.1" />
</g>
<g transform="matrix(1 0 0 1 334.35 373.24)"  >
<rect style="stroke: none; stroke-width: 1; stroke-dasharray: none; stroke-linecap: butt; stroke-dashoffset: 0; stroke-linejoin: miter; stroke-miterlimit: 4; fill: rgb(0,0,0); fill-rule: nonzero; opacity: 1;" vector-effect="non-scaling-stroke"  x="-8.95" y="-6.05" rx="0" ry="0" width="17.9" height="12.1" />
</g>
<g transform="matrix(1 0 0 1 237.01 199.63)"  >
<rect style="stroke: none; stroke-width: 1; stroke-dasharray: none; stroke-linecap: butt; stroke-dashoffset: 0; stroke-linejoin: miter; stroke-miterlimit: 4; fill: rgb(0,0,0); fill-rule: nonzero; opacity: 1;" vector-effect="non-scaling-stroke"  x="-8.95" y="-6.05" rx="0" ry="0" width="17.9" height="12.1" />
</g>
<g transform="matrix(1 0 0 1 262.76 373.24)"  >
<rect style="stroke: none; stroke-width: 1; stroke-dasharray: none; stroke-linecap: butt; stroke-dashoffset: 0; stroke-linejoin: miter; stroke-miterlimit: 4; fill: rgb(0,0,0); fill-rule: nonzero; opacity: 1;" vector-effect="non-scaling-stroke"  x="-8.95" y="-6.05" rx="0" ry="0" width="17.9" height="12.1" />
</g>
<g transform="matrix(1 0 0 1 272.81 199.63)"  >
<rect style="stroke: none; stroke-width: 1; stroke-dasharray: none; stroke-linecap: butt; stroke-dashoffset: 0; stroke-linejoin: miter; stroke-miterlimit: 4; fill: rgb(0,0,0); fill-rule: nonzero; opacity: 1;" vector-effect="non-scaling-stroke"  x="-8.95" y="-6.05" rx="0" ry="0" width="17.9" height="12.1" />
</g>
<g transform="matrix(1 0 0 1 490.95 637.42)"  >
<path style="stroke: none; stroke-width: 1; stroke-dasharray: none; stroke-linecap: butt; stroke-dashoffset: 0; stroke-linejoin: miter; stroke-miterlimit: 4; fill: rgb(0,0,0); fill-rule: nonzero; opacity: 1;" vector-effect="non-scaling-stroke"  transform=" translate(-376.14, -522.23)" d="M 749.54 313.13 L 690.8 257.8 L 690.8 252 L 684.64 252 L 634.34 204.62 L 392.34000000000003 204.62 L 392.34000000000003 252 L 389.58000000000004 252 L 389.58000000000004 264.1 L 392.34000000000003 264.1 L 392.34000000000003 407.29 L 273 407.29 L 220.26 331.8 L 24.36 331.8 C 10.805894391722102 331.91552339773665 -0.09427665822284936 342.9857299566709 0 356.54 L 0 816.54 C -0.03000223114692064 817.1196120112612 -0.030002231146917233 817.7003879887387 3.552713678800501e-15 818.28 L 0 822.76 L 0.61 822.76 C 1.3751640739667028 825.7356808468095 2.73592916385573 828.525249281082 4.610000000000004 830.96 C 8.879104879403553 836.5866541608359 15.547197460769198 839.8762465009762 22.610000000000007 839.84 L 494.87 839.84 C 504.9653861208735 839.8440701186355 513.8299428065789 833.1292399505332 516.5600000000001 823.4100000000001 L 567.4 684 L 749.54 684 L 749.54 450.24 L 752.31 450.24 L 752.31 438.14 L 749.54 438.14 Z M 717.8399999999999 301.8 L 645.93 301.8 L 645.93 234.07 Z M 24.36 343.91 L 214 343.91 L 266.76 419.40000000000003 L 392.39 419.40000000000003 L 392.39 500.64000000000004 L 129.88 500.64000000000004 C 119.78248860093339 500.6528528375126 110.91413368315062 507.35103074689596 108.14 517.0600000000001 L 12.14 780.3000000000001 L 12.14 356.54 C 12.04520662159614 349.68515434878026 17.505758201965303 344.0413927726704 24.359999999999992 343.91 Z M 505.1 819.53 L 504.94 820.05 C 503.71392300339045 824.6020666443113 499.5842932124416 827.7638785299335 494.87 827.76 L 22.61 827.76 C 19.803310687141227 827.7521569637361 17.115895066181288 826.6241394418189 15.144444792903716 824.6264031648976 C 13.172994519626144 822.6286668879764 12.08066928577903 819.9265470103558 12.11 817.12 L 12.11 817.12 L 12.11 817 C 12.130471941979009 816.251413054772 12.231045279975199 815.5071703536001 12.41 814.78 L 119.59 521 L 119.75 520.51 C 120.9948267785804 515.9407798087213 125.14424591580168 512.7703450483963 129.88 512.77 L 602.13 512.77 C 610.58 512.77 611.8 523.05 611.97 526.53 Z M 737.44 671.94 L 571.81 671.94 L 623.7299999999999 529.58 L 624.0999999999999 528.58 L 624.0999999999999 527.51 C 624.0999999999999 511.69 615.0999999999999 500.64 602.0999999999999 500.64 L 404.5 500.64 L 404.5 216.72 L 629.5 216.72 L 633.78 220.72 L 633.78 313.87 L 732.68 313.87 L 737.4 318.32 Z" stroke-linecap="round" />
</g>
<g transform="matrix(1 0 0 1 453.87 718.91)"  >
<path style="stroke: none; stroke-width: 1; stroke-dasharray: none; stroke-linecap: butt; stroke-dashoffset: 0; stroke-linejoin: miter; stroke-miterlimit: 4; fill: rgb(0,0,0); fill-rule: nonzero; opacity: 1;" vector-effect="non-scaling-stroke"  transform=" translate(-339.06, -603.72)" d="M 542.82 545.1 L 167.13 545.1 C 158.59554439322264 545.1047918076727 151.08419598741216 550.7311785268219 148.68 558.9200000000001 L 117.46000000000001 637.48 L 117.24000000000001 638.13 C 115.68842588352729 643.9012718917176 116.909722498788 650.0659005704323 120.54447320816595 654.8096911188981 C 124.17922391754392 659.5534816673638 129.81380138142583 662.3366002369534 135.79000000000002 662.34 L 511.49 662.34 C 520.0252127843979 662.3448635873804 527.533317978743 656.7005302962485 529.9 648.5 L 561.54 568.87 L 561.54 567.71 C 561.54 554.39 553.84 545.1 542.82 545.1 Z M 518.5300000000001 644.33 L 518.3100000000001 645.0200000000001 C 517.4927544755324 648.1100412935637 514.686195678506 650.254054685427 511.49000000000007 650.2300000000001 L 135.79 650.2300000000001 C 133.636700257701 650.2221218131775 131.60230068691706 649.2415194258011 130.25476942106945 647.561959562749 C 128.90723815522185 645.882399699697 128.39093404349208 643.683810897773 128.85 641.5800000000002 L 160 563.1 L 160.22 562.45 C 161.0666308770451 559.3527281255331 163.87910216030457 557.2034596776274 167.09 557.2 L 542.82 557.2 C 548.23 557.2 549.22 563.8900000000001 549.3900000000001 566.6400000000001 Z" stroke-linecap="round" />
</g>
<g transform="matrix(1 0 0 1 719.34 196.26)"  >
<circle style="stroke: none; stroke-width: 1; stroke-dasharray: none; stroke-linecap: butt; stroke-dashoffset: 0; stroke-linejoin: miter; stroke-miterlimit: 4; fill: rgb(0,123,255); fill-rule: nonzero; opacity: 1;" vector-effect="non-scaling-stroke"  cx="0" cy="0" r="49.04" />
</g>
<g transform="matrix(1 0 0 1 299.09 370.26)"  >
<circle style="stroke: none; stroke-width: 1; stroke-dasharray: none; stroke-linecap: butt; stroke-dashoffset: 0; stroke-linejoin: miter; stroke-miterlimit: 4; fill: rgb(0,123,255); fill-rule: nonzero; opacity: 1;" vector-effect="non-scaling-stroke"  cx="0" cy="0" r="49.04" />
</g>
<g transform="matrix(1 0 0 1 419.43 196.25)"  >
<circle style="stroke: none; stroke-width: 1; stroke-dasharray: none; stroke-linecap: butt; stroke-dashoffset: 0; stroke-linejoin: miter; stroke-miterlimit: 4; fill: rgb(0,123,255); fill-rule: nonzero; opacity: 1;" vector-effect="non-scaling-stroke"  cx="0" cy="0" r="71.3" />
</g>
<g transform="matrix(NaN NaN NaN NaN 0 0)"  >
<g style=""   >
</g>
</g>
<g transform="matrix(NaN NaN NaN NaN 0 0)"  >
<g style=""   >
</g>
</g>
<g transform="matrix(NaN NaN NaN NaN 0 0)"  >
<g style=""   >
</g>
</g>
<g transform="matrix(NaN NaN NaN NaN 0 0)"  >
<g style=""   >
</g>
</g>
</svg>