<?xml version="1.0" encoding="UTF-8" standalone="no" ?>
<!DOCTYPE svg PUBLIC "-//W3C//DTD SVG 1.1//EN" "http://www.w3.org/Graphics/SVG/1.1/DTD/svg11.dtd">
<svg xmlns="http://www.w3.org/2000/svg" xmlns:xlink="http://www.w3.org/1999/xlink" version="1.1" width="1080" height="1080" viewBox="0 0 1080 1080" xml:space="preserve">
<desc>Created with Fabric.js 5.2.4</desc>
<defs>
</defs>
<g transform="matrix(1 0 0 1 540 540)" id="da9c471a-dc68-4e3f-97bc-83f760af82aa"  >
<rect style="stroke: none; stroke-width: 1; stroke-dasharray: none; stroke-linecap: butt; stroke-dashoffset: 0; stroke-linejoin: miter; stroke-miterlimit: 4; fill: rgb(255,255,255); fill-rule: nonzero; opacity: 1; visibility: hidden;" vector-effect="non-scaling-stroke"  x="-540" y="-540" rx="0" ry="0" width="1080" height="1080" />
</g>
<g transform="matrix(1 0 0 1 540 540)" id="848e84a4-6689-4801-ae4e-a658f1cf0db3"  >
</g>
<g transform="matrix(1 0 0 1 599.5 540)"  >
<path style="stroke: none; stroke-width: 1; stroke-dasharray: none; stroke-linecap: butt; stroke-dashoffset: 0; stroke-linejoin: miter; stroke-miterlimit: 4; fill: rgb(255,255,255); fill-rule: nonzero; opacity: 1;" vector-effect="non-scaling-stroke"  transform=" translate(-488.27, -427.94)" d="M 839.61 46 C 832.7120333838087 39.06017608220254 823.3248149651486 35.167739139137076 813.54 35.19 L 429.37999999999994 34.19 L 429.37999999999994 34.19 C 409.04196508343097 34.200945704732284 392.54509875563383 50.662036773483 392.49 71 L 392.42 164 L 161.21 164.28 C 151.90620449054646 164.28795309343678 142.9866279536114 167.9915005800074 136.41347715214485 174.57590356544222 C 129.84032635067828 181.16030655087704 126.15204010226256 190.08620449636538 126.16000000000001 199.39 L 126.86000000000001 786.65 C 126.9205896892237 806.01755753866 142.63235076650656 821.6890779074353 162 821.7 L 162 821.7 L 421 821.38 C 430.3055298623508 821.3720480715805 439.22662322360236 817.6671276093629 445.80006155909507 811.0805611516595 C 452.3734998945877 804.4939946939561 456.06061403986934 795.5655272066888 456.05 786.26 L 456.05 752.55 L 813.05 753.4399999999999 L 813.05 753.4399999999999 C 833.4088341225364 753.4400007488185 849.9144782115209 736.9388333737177 849.92 716.5799999999999 L 850.38 72.04999999999995 C 850.410844212035 62.277229434554954 846.5330465607606 52.897783862066575 839.61 45.99999999999999 Z M 438.25 803.54 C 433.68846754218185 808.1368634028014 427.4759934803704 810.7154903177329 421 810.7 L 162 811 L 162 811 C 148.53400467665512 810.9835560401516 137.61403249569736 800.0859333724583 137.57 786.62 L 137.26999999999998 531.39 L 145 531.39 L 145.25 738.48 C 145.25 746.7642712474619 151.9657287525381 753.48 160.25 753.48 L 160.25 753.48 L 422.44 753.1700000000001 L 422.44 753.1700000000001 C 430.71287886373284 753.1425607063161 437.412560706316 746.4428788637329 437.44 738.1700000000001 L 436.83 237.69000000000005 C 436.83 229.40572875253815 430.1142712474619 222.69000000000005 421.83 222.69000000000005 L 421.83 222.69000000000005 L 159.67 223 C 151.39712113626715 223.02743929368398 144.69743929368394 229.72712113626716 144.67 238 L 145 520.73 L 137.23 520.73 L 136.85 199.38 C 136.85551352233477 185.9214863190957 147.7614897136568 175.01103496314857 161.22 175 L 420.22 174.69 L 420.22 174.69 C 433.6818201305072 174.66231269804962 444.6248795639373 185.5382642445208 444.68 198.99999999999997 L 445.38 786.25 C 445.4130175103602 792.7352847347938 442.8448003291986 798.9631213494198 438.25 803.54 Z M 422.48 742.3299999999999 L 160.29000000000002 742.65 L 160.29000000000002 742.65 C 157.99768264296043 742.6282251656756 156.14627101633232 740.7723630303298 156.13000000000002 738.48 L 155.52 238 C 155.51999338908414 235.7008721905581 157.3808788014645 233.83551349593642 159.68 233.83 L 421.86 233.51000000000002 L 421.86 233.51000000000002 C 424.15231735703964 233.53177483432432 426.00372898366777 235.3876369696703 426.02000000000004 237.68 L 426.63000000000005 738.1500000000001 C 426.63000000000005 740.4530274067945 424.76302740679444 742.32 422.46000000000004 742.32 Z M 445.05 174.20999999999992 C 440.4699973388543 169.62250713863654 434.7000084022345 166.40502831383475 428.39 164.91999999999993 L 428.39 110.32999999999993 C 428.40095855833056 107.67806280008256 430.5480628000826 105.53095855833048 433.2 105.51999999999992 L 433.2 105.51999999999992 L 810.3199999999999 106.45999999999992 C 812.9884853201805 106.47646690029559 815.144559992065 108.64146941761224 815.15 111.30999999999992 L 814.75 665.6199999999999 C 814.7335747769613 668.2680311499863 812.5880595989205 670.4090857975116 809.94 670.4199999999998 L 809.94 670.4199999999998 L 455.94000000000005 669.5499999999998 L 455.36 199 C 455.37314991825366 189.69113619891448 451.66047131816555 180.76414274632626 445.05 174.21 Z M 839.25 716.5799999999999 C 839.2389704311338 731.0342436884789 827.524243688479 742.7489704311337 813.07 742.7599999999999 L 813.07 742.7599999999999 L 456.07000000000005 741.8699999999999 L 456.00000000000006 680.0799999999999 L 810 680.9499999999999 L 810 680.9499999999999 C 818.459678467054 680.9334932632046 825.3134932632047 674.0796784670539 825.33 665.6199999999999 L 825.74 111.31999999999994 C 825.7290590804312 102.84599655587633 818.8739462182357 95.97300856235833 810.4 95.93999999999994 L 433.27 95 L 433.27 95 C 424.80641655475523 95.01100417119476 417.9465232966969 101.86642553012787 417.93 110.33 L 417.93 163.98 L 403.17 163.98 L 403.24 70.97999999999999 C 403.2620402653151 56.53194408210662 414.9719367161588 44.82652047177126 429.42 44.80999999999999 L 429.42 44.80999999999999 L 813.58 45.80999999999999 C 828.0209006061297 45.84308347876467 839.7100378963598 57.55906149756025 839.71 72 Z" stroke-linecap="round" />
</g>
<g transform="matrix(1 0 0 1 730.34 821.27)"  >
<path style="stroke: none; stroke-width: 1; stroke-dasharray: none; stroke-linecap: butt; stroke-dashoffset: 0; stroke-linejoin: miter; stroke-miterlimit: 4; fill: rgb(255,255,255); fill-rule: nonzero; opacity: 1;" vector-effect="non-scaling-stroke"  transform=" translate(-619.11, -709.22)" d="M 619.13 689.33 L 619.13 689.33 C 608.145064491562 689.318959866607 599.2310639529876 698.2150578119727 599.2200201173365 709.1999933166892 C 599.2089762816854 720.1849288214056 608.1050712227608 729.0989323582356 619.0900067237545 729.1099798961448 C 630.0749422247483 729.1210274340539 638.9889487598329 720.2249354972698 639 709.24 L 639 709.24 C 639.0053078160216 703.9613796357238 636.912103688463 698.8971407352687 633.1814296709691 695.1627154115732 C 629.4507556534753 691.4282900878777 624.3886230328615 689.3299973314141 619.11 689.33 Z M 619.13 718.4300000000001 C 614.0434577000325 718.4299996521402 609.9200006298561 714.3065422999676 609.9200006298561 709.22 C 609.9200006298561 704.1334577000325 614.0434577000325 700.01000034786 619.13 700.0100000000001 L 619.13 700.0100000000001 C 622.4204162330715 700.0099997749742 625.4608863122396 701.765415808816 627.1060944937348 704.6149998181763 C 628.7513026752298 707.4645838275366 628.7513026752298 710.9754161724636 627.1060944937348 713.8250001818238 C 625.4608863122396 716.6745841911841 622.4204162330715 718.430000225026 619.13 718.4300000000001 Z" stroke-linecap="round" />
</g>
<g transform="matrix(1 0 0 1 733.43 189.93)"  >
<path style="stroke: none; stroke-width: 1; stroke-dasharray: none; stroke-linecap: butt; stroke-dashoffset: 0; stroke-linejoin: miter; stroke-miterlimit: 4; fill: rgb(255,255,255); fill-rule: nonzero; opacity: 1;" vector-effect="non-scaling-stroke"  transform=" translate(-622.2, -77.87)" d="M 713.4 72.44 L 531 72.44 C 528.0010938084188 72.44 525.57 74.87109380841879 525.57 77.87 C 525.57 80.8689061915812 528.0010938084188 83.3 531 83.3 L 713.4 83.3 C 716.3989061915812 83.3 718.8299999999999 80.8689061915812 718.8299999999999 77.87 C 718.8299999999999 74.87109380841879 716.3989061915812 72.44 713.4 72.44 Z" stroke-linecap="round" />
</g>
<g transform="matrix(1 0 0 1 403.23 892.06)"  >
<path style="stroke: none; stroke-width: 1; stroke-dasharray: none; stroke-linecap: butt; stroke-dashoffset: 0; stroke-linejoin: miter; stroke-miterlimit: 4; fill: rgb(255,255,255); fill-rule: nonzero; opacity: 1;" vector-effect="non-scaling-stroke"  transform=" translate(-292, -780.01)" d="M 291.78 760.94 L 291.78 760.94 C 281.42078763106565 761.1772667078503 273.1466634859935 769.6430708169117 273.1466634859935 780.0050000000001 C 273.14666348599354 790.3669291830884 281.42078763106565 798.8327332921498 291.78 799.07 L 291.78 799.07 C 302.30522026775793 799.0534811827858 310.8334811827858 790.525220267758 310.85 780 L 310.85 780 C 310.8005020089994 769.4998462740753 302.28026475164575 761.010884140372 291.78000000000003 761 Z M 291.78 788.3900000000001 L 291.78 788.3900000000001 C 288.39439632360956 788.3798361509091 285.34666212004134 786.3358067184442 284.0524221190483 783.2073313106384 C 282.75818211805523 780.0788559028325 283.4710855683031 776.4790630244843 285.85999999999996 774.0800000000002 C 287.4450153183097 772.525278387299 289.56989488796785 771.6437937766145 291.78999999999996 771.6200000000001 C 294.8547306908251 771.5141464281536 297.7330663659933 773.0887632516169 299.2968066192267 775.726659308397 C 300.8605468724601 778.364555365177 300.8605468724601 781.6454446348232 299.2968066192267 784.2833406916033 C 297.7330663659933 786.9212367483833 294.8547306908251 788.4958535718466 291.78999999999996 788.3900000000001 Z" stroke-linecap="round" />
</g>
<g transform="matrix(1 0 0 1 402.34 312.67)"  >
<path style="stroke: none; stroke-width: 1; stroke-dasharray: none; stroke-linecap: butt; stroke-dashoffset: 0; stroke-linejoin: miter; stroke-miterlimit: 4; fill: rgb(255,255,255); fill-rule: nonzero; opacity: 1;" vector-effect="non-scaling-stroke"  transform=" translate(-291.11, -200.61)" d="M 357.44 195.27 L 224.78 195.27 C 221.83079943590357 195.27 219.44 197.66079943590358 219.44 200.61 C 219.44 203.55920056409644 221.83079943590357 205.95000000000002 224.78 205.95000000000002 L 357.44 205.95000000000002 C 360.3892005640964 205.95000000000002 362.78 203.55920056409644 362.78 200.61 C 362.78 197.66079943590358 360.3892005640964 195.27 357.44 195.27 Z" stroke-linecap="round" />
</g>
<g transform="matrix(1 0 0 1 187.6 629.16)"  >
<path style="stroke: none; stroke-width: 1; stroke-dasharray: none; stroke-linecap: butt; stroke-dashoffset: 0; stroke-linejoin: miter; stroke-miterlimit: 4; fill: rgb(255,255,255); fill-rule: nonzero; opacity: 1;" vector-effect="non-scaling-stroke"  transform=" translate(-76.37, -517.11)" d="M 67.11 518.58 C 71.94453090352246 521.1185815443433 76.95783966491892 523.3010419584712 82.10999999999996 525.11 L 85.62 515 C 80.96945507519595 513.3645561650134 76.44415844344802 511.39267653965794 72.07999999999998 509.1 Z" stroke-linecap="round" />
</g>
<g transform="matrix(1 0 0 1 188.63 433.18)"  >
<path style="stroke: none; stroke-width: 1; stroke-dasharray: none; stroke-linecap: butt; stroke-dashoffset: 0; stroke-linejoin: miter; stroke-miterlimit: 4; fill: rgb(255,255,255); fill-rule: nonzero; opacity: 1;" vector-effect="non-scaling-stroke"  transform=" translate(-77.4, -321.12)" d="M 68.17 319.55 L 73.04 329.05 C 77.42431020603078 326.80575803484385 81.96633881559931 324.8840020006261 86.63000000000005 323.3 L 83.2 313.19 C 78.0404802456555 314.9376766485575 73.01685879610784 317.06344061523237 68.16999999999999 319.55 Z" stroke-linecap="round" />
</g>
<g transform="matrix(1 0 0 1 162.29 449.13)"  >
<path style="stroke: none; stroke-width: 1; stroke-dasharray: none; stroke-linecap: butt; stroke-dashoffset: 0; stroke-linejoin: miter; stroke-miterlimit: 4; fill: rgb(255,255,255); fill-rule: nonzero; opacity: 1;" vector-effect="non-scaling-stroke"  transform=" translate(-51.06, -337.08)" d="M 41.68 338.43 L 49.07 346.14 C 52.628385628338286 342.7304908752717 56.42826122176496 339.58230898520316 60.440000000000005 336.71999999999997 L 54.239999999999995 328.02 C 49.80718936615152 331.18181523382617 45.60951316540995 334.6609401740905 41.679999999999964 338.43000000000006 Z" stroke-linecap="round" />
</g>
<g transform="matrix(1 0 0 1 123.88 530.82)"  >
<path style="stroke: none; stroke-width: 1; stroke-dasharray: none; stroke-linecap: butt; stroke-dashoffset: 0; stroke-linejoin: miter; stroke-miterlimit: 4; fill: rgb(255,255,255); fill-rule: nonzero; opacity: 1;" vector-effect="non-scaling-stroke"  transform=" translate(-12.64, -418.76)" d="M 17.84 419.34 C 17.84 416.71 17.94 414.04999999999995 18.14 411.42999999999995 L 7.49 410.60999999999996 C 7.2700000000000005 413.49999999999994 7.15 416.43999999999994 7.15 419.33 C 7.15 421.83 7.24 424.38 7.41 426.90999999999997 L 18.060000000000002 426.2 C 17.91 423.91 17.84 421.6 17.84 419.34 Z" stroke-linecap="round" />
</g>
<g transform="matrix(1 0 0 1 128.21 561.82)"  >
<path style="stroke: none; stroke-width: 1; stroke-dasharray: none; stroke-linecap: butt; stroke-dashoffset: 0; stroke-linejoin: miter; stroke-miterlimit: 4; fill: rgb(255,255,255); fill-rule: nonzero; opacity: 1;" vector-effect="non-scaling-stroke"  transform=" translate(-16.98, -449.76)" d="M 20.11 440.81 L 9.68 443.07 C 10.825635489664002 448.39179016792923 12.35974421314718 453.62246588089477 14.269999999999989 458.71999999999997 L 24.27 454.96999999999997 C 22.542435086352125 450.35690932813566 21.152112873813902 445.62446641238057 20.110000000000003 440.81 Z" stroke-linecap="round" />
</g>
<g transform="matrix(1 0 0 1 161.41 612.97)"  >
<path style="stroke: none; stroke-width: 1; stroke-dasharray: none; stroke-linecap: butt; stroke-dashoffset: 0; stroke-linejoin: miter; stroke-miterlimit: 4; fill: rgb(255,255,255); fill-rule: nonzero; opacity: 1;" vector-effect="non-scaling-stroke"  transform=" translate(-50.18, -500.91)" d="M 40.81 499.41 C 44.700619817378076 503.23405212723577 48.86136377240112 506.7731909612674 53.25999999999999 510 L 59.55 501.37 C 55.571906997106666 498.4652048191245 51.8087859999805 495.27691225139944 48.290000000000035 491.83 Z" stroke-linecap="round" />
</g>
<g transform="matrix(1 0 0 1 141.03 589.82)"  >
<path style="stroke: none; stroke-width: 1; stroke-dasharray: none; stroke-linecap: butt; stroke-dashoffset: 0; stroke-linejoin: miter; stroke-miterlimit: 4; fill: rgb(255,255,255); fill-rule: nonzero; opacity: 1;" vector-effect="non-scaling-stroke"  transform=" translate(-29.8, -477.76)" d="M 21.1 473.53 C 23.733289521641282 478.2888659803666 26.707734671413526 482.8507959010848 29.99999999999998 487.18 L 38.49 480.71 C 35.50845687567269 476.78999064157915 32.81474349812997 472.65918451919356 30.43 468.35 Z" stroke-linecap="round" />
</g>
<g transform="matrix(1 0 0 1 141.68 472.02)"  >
<path style="stroke: none; stroke-width: 1; stroke-dasharray: none; stroke-linecap: butt; stroke-dashoffset: 0; stroke-linejoin: miter; stroke-miterlimit: 4; fill: rgb(255,255,255); fill-rule: nonzero; opacity: 1;" vector-effect="non-scaling-stroke"  transform=" translate(-30.44, -359.96)" d="M 21.69 364.11 L 31 369.38 C 33.43216833300474 365.093381640767 36.17272338190838 360.9892333480187 39.19999999999999 357.1 L 30.770000000000003 350.54 C 27.417214102060576 354.8363979402833 24.382485476682632 359.3717798176378 21.690000000000005 364.11000000000007 Z" stroke-linecap="round" />
</g>
<g transform="matrix(1 0 0 1 128.5 499.91)"  >
<path style="stroke: none; stroke-width: 1; stroke-dasharray: none; stroke-linecap: butt; stroke-dashoffset: 0; stroke-linejoin: miter; stroke-miterlimit: 4; fill: rgb(255,255,255); fill-rule: nonzero; opacity: 1;" vector-effect="non-scaling-stroke"  transform=" translate(-17.26, -387.85)" d="M 24.65 382.72 L 14.649999999999999 378.86 C 12.685555594820464 383.94487776260627 11.091398107406558 389.1651586752698 9.879999999999988 394.4800000000001 L 20.299999999999997 396.84000000000003 C 21.40467883994529 392.0338067695681 22.858537979049373 387.31461342608543 24.64999999999999 382.7200000000001 Z" stroke-linecap="round" />
</g>
<g transform="matrix(1 0 0 1 435.48 638.13)"  >
<rect style="stroke: none; stroke-width: 1; stroke-dasharray: none; stroke-linecap: butt; stroke-dashoffset: 0; stroke-linejoin: miter; stroke-miterlimit: 4; fill: rgb(255,255,255); fill-rule: nonzero; opacity: 1;" vector-effect="non-scaling-stroke"  x="-7.78" y="-5.34" rx="0" ry="0" width="15.56" height="10.68" />
</g>
<g transform="matrix(1 0 0 1 217.39 637.15)"  >
<path style="stroke: none; stroke-width: 1; stroke-dasharray: none; stroke-linecap: butt; stroke-dashoffset: 0; stroke-linejoin: miter; stroke-miterlimit: 4; fill: rgb(255,255,255); fill-rule: nonzero; opacity: 1;" vector-effect="non-scaling-stroke"  transform=" translate(-106.16, -525.1)" d="M 97.83 529.37 C 103.16609802938295 530.4043983652344 108.57034641937547 531.0494323412818 114 531.3 L 114.48 520.63 C 109.56118877528974 520.4029183925292 104.6651571799118 519.821410203044 99.82999999999998 518.89 Z" stroke-linecap="round" />
</g>
<g transform="matrix(1 0 0 1 373.27 638.13)"  >
<rect style="stroke: none; stroke-width: 1; stroke-dasharray: none; stroke-linecap: butt; stroke-dashoffset: 0; stroke-linejoin: miter; stroke-miterlimit: 4; fill: rgb(255,255,255); fill-rule: nonzero; opacity: 1;" vector-effect="non-scaling-stroke"  x="-7.78" y="-5.34" rx="0" ry="0" width="15.56" height="10.68" />
</g>
<g transform="matrix(1 0 0 1 466.59 638.13)"  >
<rect style="stroke: none; stroke-width: 1; stroke-dasharray: none; stroke-linecap: butt; stroke-dashoffset: 0; stroke-linejoin: miter; stroke-miterlimit: 4; fill: rgb(255,255,255); fill-rule: nonzero; opacity: 1;" vector-effect="non-scaling-stroke"  x="-7.78" y="-5.34" rx="0" ry="0" width="15.56" height="10.68" />
</g>
<g transform="matrix(1 0 0 1 404.38 638.13)"  >
<rect style="stroke: none; stroke-width: 1; stroke-dasharray: none; stroke-linecap: butt; stroke-dashoffset: 0; stroke-linejoin: miter; stroke-miterlimit: 4; fill: rgb(255,255,255); fill-rule: nonzero; opacity: 1;" vector-effect="non-scaling-stroke"  x="-7.78" y="-5.34" rx="0" ry="0" width="15.56" height="10.68" />
</g>
<g transform="matrix(1 0 0 1 342.16 638.13)"  >
<rect style="stroke: none; stroke-width: 1; stroke-dasharray: none; stroke-linecap: butt; stroke-dashoffset: 0; stroke-linejoin: miter; stroke-miterlimit: 4; fill: rgb(255,255,255); fill-rule: nonzero; opacity: 1;" vector-effect="non-scaling-stroke"  x="-7.775" y="-5.34" rx="0" ry="0" width="15.55" height="10.68" />
</g>
<g transform="matrix(1 0 0 1 279.94 638.13)"  >
<rect style="stroke: none; stroke-width: 1; stroke-dasharray: none; stroke-linecap: butt; stroke-dashoffset: 0; stroke-linejoin: miter; stroke-miterlimit: 4; fill: rgb(255,255,255); fill-rule: nonzero; opacity: 1;" vector-effect="non-scaling-stroke"  x="-7.78" y="-5.34" rx="0" ry="0" width="15.56" height="10.68" />
</g>
<g transform="matrix(1 0 0 1 218.52 425.51)"  >
<path style="stroke: none; stroke-width: 1; stroke-dasharray: none; stroke-linecap: butt; stroke-dashoffset: 0; stroke-linejoin: miter; stroke-miterlimit: 4; fill: rgb(255,255,255); fill-rule: nonzero; opacity: 1;" vector-effect="non-scaling-stroke"  transform=" translate(-107.29, -313.46)" d="M 99 309.09 L 100.92 319.59999999999997 C 105.76136080125522 318.71159276599644 110.66097902510167 318.1768458929982 115.58000000000004 318 L 115.21 307.32 C 109.7714133206571 307.5232609697877 104.35429354748464 308.11476633675346 99 309.09 Z" stroke-linecap="round" />
</g>
<g transform="matrix(1 0 0 1 311.05 638.13)"  >
<rect style="stroke: none; stroke-width: 1; stroke-dasharray: none; stroke-linecap: butt; stroke-dashoffset: 0; stroke-linejoin: miter; stroke-miterlimit: 4; fill: rgb(255,255,255); fill-rule: nonzero; opacity: 1;" vector-effect="non-scaling-stroke"  x="-7.775" y="-5.34" rx="0" ry="0" width="15.55" height="10.68" />
</g>
<g transform="matrix(1 0 0 1 609.8 578.56)"  >
<polygon style="stroke: none; stroke-width: 1; stroke-dasharray: none; stroke-linecap: butt; stroke-dashoffset: 0; stroke-linejoin: miter; stroke-miterlimit: 4; fill: rgb(255,255,255); fill-rule: nonzero; opacity: 1;" vector-effect="non-scaling-stroke"  points="-184.62,7.54 -188.41,-47.01 188.4,47.01 -184.62,7.54 " />
</g>
<g transform="matrix(1 0 0 1 612.04 683.74)"  >
<polygon style="stroke: none; stroke-width: 1; stroke-dasharray: none; stroke-linecap: butt; stroke-dashoffset: 0; stroke-linejoin: miter; stroke-miterlimit: 4; fill: rgb(255,255,255); fill-rule: nonzero; opacity: 1;" vector-effect="non-scaling-stroke"  points="186.17,-58.17 -179.67,58.18 -186.17,10.87 186.17,-58.17 " />
</g>
<g transform="matrix(1 0 0 1 585.06 646.39)"  >
<polygon style="stroke: none; stroke-width: 1; stroke-dasharray: none; stroke-linecap: butt; stroke-dashoffset: 0; stroke-linejoin: miter; stroke-miterlimit: 4; fill: rgb(255,255,255); fill-rule: nonzero; opacity: 1;" vector-effect="non-scaling-stroke"  points="213.14,-20.83 -213.15,48.21 -160.86,-48.22 213.14,-20.83 " />
</g>
</svg>