<?xml version="1.0" encoding="UTF-8" standalone="no" ?>
<!DOCTYPE svg PUBLIC "-//W3C//DTD SVG 1.1//EN" "http://www.w3.org/Graphics/SVG/1.1/DTD/svg11.dtd">
<svg xmlns="http://www.w3.org/2000/svg" xmlns:xlink="http://www.w3.org/1999/xlink" version="1.1" width="1080" height="1080" viewBox="0 0 1080 1080" xml:space="preserve">
<desc>Created with Fabric.js 5.2.4</desc>
<defs>
</defs>
<g transform="matrix(1 0 0 1 540 540)" id="d965de02-2842-424a-b383-3a49734b7dd5"  >
</g>
<g transform="matrix(1 0 0 1 540 540)" id="8bd03e94-b9b2-40f5-95df-4ce51c1ff350"  >
<rect style="stroke: none; stroke-width: 1; stroke-dasharray: none; stroke-linecap: butt; stroke-dashoffset: 0; stroke-linejoin: miter; stroke-miterlimit: 4; fill: rgb(255,255,255); fill-rule: nonzero; opacity: 1; visibility: hidden;" vector-effect="non-scaling-stroke"  x="-540" y="-540" rx="0" ry="0" width="1080" height="1080" />
</g>
<g transform="matrix(1 0 0 1 540 540)"  >
<path style="stroke: none; stroke-width: 1; stroke-dasharray: none; stroke-linecap: butt; stroke-dashoffset: 0; stroke-linejoin: miter; stroke-miterlimit: 4; fill: rgb(0,0,0); fill-rule: nonzero; opacity: 1;" vector-effect="non-scaling-stroke"  transform=" translate(-425.23, -425.19)" d="M 802 177.78 L 711.54 177.78 L 658.19 2.25 L 657.51 0 L 647.45 33.1 L 603.45 177.78 L 48.41 177.78 C 36.58435149081134 177.82401178469092 27.01642679809315 187.4142810002786 27 199.24000000000004 L 27 694.81 C 27.016524338510163 706.6551793745099 36.61482062549008 716.2534756614898 48.46000000000001 716.27 L 310.46 716.27 C 312.4165148585892 725.1298804426258 313.2364473320888 734.2029037149574 312.9 743.27 L 312.69 748.67 C 312.37798373835636 753.1647839924007 311.8137618679928 757.6384958639225 311 762.07 C 306.59 786.3100000000001 269.22 791.35 268.85 791.4000000000001 L 268.85 791.7800000000001 L 246 791.7800000000001 C 234.15643841370056 791.7910159854899 224.55653617116957 801.3864448346181 224.54 813.2300000000001 L 224.54 828.9300000000002 C 224.5510260291195 840.7774605950306 234.15253940496962 850.3789739708806 246 850.39 L 604.44 850.39 C 616.2874605950306 850.3789739708806 625.8889739708807 840.7774605950304 625.9000000000001 828.93 L 625.9000000000001 813.2299999999999 C 625.8834638288305 801.3864448346178 616.2835615862996 791.7910159854897 604.44 791.7799999999999 L 581.56 791.7799999999999 L 581.56 791.3999999999999 C 581.1899999999999 791.3999999999999 543.8399999999999 786.3999999999999 539.42 762.0699999999998 C 538.3039651159971 755.858179493454 537.6687476207705 749.5695262907105 537.52 743.2599999999999 C 537.1920870765385 734.1910730140532 538.0255163739054 725.1174475991726 540 716.2599999999999 L 802 716.2599999999999 C 813.8474605950305 716.2489739708805 823.4489739708806 706.6474605950303 823.46 694.7999999999998 L 823.46 199.24 C 823.4489739708806 187.3925394049695 813.8474605950305 177.7910260291194 802 177.78 Z M 592.76 664.27 L 72.17 664.27 L 72.17 216.7 L 592.77 216.7 Z M 604.29 215.66999999999996 C 611.53 205.66999999999996 619.13 200.59999999999997 626.88 200.57999999999996 L 626.88 200.57999999999996 C 638.63 200.57999999999996 648.58 211.82999999999996 651.7 215.76999999999995 L 651.7 664.27 L 604.28 664.27 Z M 663.29 664.26 L 663.29 215.68 C 670.53 205.68 678.13 200.59 685.89 200.58 L 685.89 200.58 C 697.65 200.58 707.59 211.83 710.71 215.77 L 710.71 664.27 Z M 722.29 216.7 L 778.29 216.7 L 778.29 664.27 L 722.29 664.27 Z M 685.9599999999999 189.06 L 685.9599999999999 189.06 C 675.65 189.06 666.06 194.3 657.3799999999999 204.6 C 651.3799999999999 198.23 640.4999999999999 189.06 626.9799999999999 189.06 C 621.2304700299434 189.09851047825526 615.6033954501546 190.72503265076494 610.7199999999999 193.76 L 640.2299999999999 96.63999999999999 L 671.6999999999999 86.11999999999999 L 704.78 194.93 C 699.1702455963331 191.23123849549307 692.6280098180861 189.19610738694462 685.91 189.06 Z M 668.3399999999999 75.06 L 644.3399999999999 83.06 L 657.56 39.56 Z M 527.65 719.63 C 527.5799999999999 720.04 527.5 720.45 527.4399999999999 720.85 C 527.29 721.76 527.17 722.66 527.04 723.57 C 527.04 723.7600000000001 527.04 723.94 526.9599999999999 724.13 Q 526.5199999999999 727.49 526.28 730.86 C 526.28 730.97 526.28 731.07 526.28 731.1800000000001 C 526.2099999999999 732.1800000000001 526.15 733.1800000000001 526.11 734.1800000000001 L 526.11 734.9300000000001 C 526.11 735.7900000000001 526.0500000000001 736.6500000000001 526.04 737.5100000000001 C 526.04 737.57 526.04 737.6400000000001 526.04 737.7000000000002 L 324.42 737.7000000000002 C 324.31456233508345 731.02882403896 323.64551486019593 724.3784921385776 322.4200000000001 717.8200000000002 L 528 717.8200000000002 C 527.84 718.43 527.75 719 527.65 719.63 Z M 614.38 813.23 L 614.38 828.9300000000001 C 614.3472408947075 834.4060837492641 609.916083749264 838.8372408947076 604.4399999999999 838.8700000000001 L 246 838.8700000000001 C 240.523916250736 838.8372408947076 236.09275910529246 834.4060837492641 236.06 828.9300000000001 L 236.06 813.23 C 236.06551892106611 807.7441952356586 240.51419245954133 803.299997223882 246 803.3 L 604.44 803.3 C 609.9258075404587 803.2999972238821 614.3744810789339 807.7441952356586 614.38 813.23 Z M 548.52 791.78 L 301.88 791.78 C 311.38 785.9399999999999 319.88 777.18 322.28 764.12 C 323.1650740401203 759.1946724467658 323.7726984021109 754.2235039027884 324.1 749.23 L 526.31 749.23 C 526.6327355285343 754.2267447896799 527.2370284378802 759.201310728494 528.1199999999999 764.1300000000001 C 530.5 777.18 539 785.94 548.52 791.78 Z M 811.92 694.78 C 811.8872408947075 700.256083749264 807.4560837492639 704.6872408947075 801.9799999999999 704.72 L 48.41 704.72 C 42.93391625073599 704.6872408947075 38.502759105292455 700.256083749264 38.47 694.78 L 38.47 199.24 C 38.50275910529248 193.76391625073603 42.933916250736004 189.3327591052925 48.40999999999999 189.3 L 600 189.3 L 595.18 205.18 L 60.65 205.18 L 60.65 675.79 L 789.75 675.79 L 789.75 205.18 L 719.87 205.18 L 715 189.3 L 802 189.3 C 807.476083749264 189.33275910529247 811.9072408947076 193.763916250736 811.94 199.24 Z" stroke-linecap="round" />
</g>
<g transform="matrix(1 0 0 1 522.83 629.42)"  >
<polygon style="stroke: none; stroke-width: 1; stroke-dasharray: none; stroke-linecap: butt; stroke-dashoffset: 0; stroke-linejoin: miter; stroke-miterlimit: 4; fill: rgb(0,0,0); fill-rule: nonzero; opacity: 1;" vector-effect="non-scaling-stroke"  points="8.3,-8.3 -3.22,-8.3 -3.22,-3.22 -8.3,-3.22 -8.3,8.3 8.3,8.3 8.3,-8.3 " />
</g>
<g transform="matrix(1 0 0 1 381.94 631.96)"  >
<rect style="stroke: none; stroke-width: 1; stroke-dasharray: none; stroke-linecap: butt; stroke-dashoffset: 0; stroke-linejoin: miter; stroke-miterlimit: 4; fill: rgb(0,0,0); fill-rule: nonzero; opacity: 1;" vector-effect="non-scaling-stroke"  x="-10.285" y="-5.76" rx="0" ry="0" width="20.57" height="11.52" />
</g>
<g transform="matrix(1 0 0 1 310.5 631.96)"  >
<rect style="stroke: none; stroke-width: 1; stroke-dasharray: none; stroke-linecap: butt; stroke-dashoffset: 0; stroke-linejoin: miter; stroke-miterlimit: 4; fill: rgb(0,0,0); fill-rule: nonzero; opacity: 1;" vector-effect="non-scaling-stroke"  x="-10.285" y="-5.76" rx="0" ry="0" width="20.57" height="11.52" />
</g>
<g transform="matrix(1 0 0 1 346.22 631.96)"  >
<rect style="stroke: none; stroke-width: 1; stroke-dasharray: none; stroke-linecap: butt; stroke-dashoffset: 0; stroke-linejoin: miter; stroke-miterlimit: 4; fill: rgb(0,0,0); fill-rule: nonzero; opacity: 1;" vector-effect="non-scaling-stroke"  x="-10.285" y="-5.76" rx="0" ry="0" width="20.57" height="11.52" />
</g>
<g transform="matrix(1 0 0 1 453.38 631.96)"  >
<rect style="stroke: none; stroke-width: 1; stroke-dasharray: none; stroke-linecap: butt; stroke-dashoffset: 0; stroke-linejoin: miter; stroke-miterlimit: 4; fill: rgb(0,0,0); fill-rule: nonzero; opacity: 1;" vector-effect="non-scaling-stroke"  x="-10.285" y="-5.76" rx="0" ry="0" width="20.57" height="11.52" />
</g>
<g transform="matrix(1 0 0 1 489.1 631.96)"  >
<rect style="stroke: none; stroke-width: 1; stroke-dasharray: none; stroke-linecap: butt; stroke-dashoffset: 0; stroke-linejoin: miter; stroke-miterlimit: 4; fill: rgb(0,0,0); fill-rule: nonzero; opacity: 1;" vector-effect="non-scaling-stroke"  x="-10.285" y="-5.76" rx="0" ry="0" width="20.57" height="11.52" />
</g>
<g transform="matrix(1 0 0 1 276.76 629.42)"  >
<polygon style="stroke: none; stroke-width: 1; stroke-dasharray: none; stroke-linecap: butt; stroke-dashoffset: 0; stroke-linejoin: miter; stroke-miterlimit: 4; fill: rgb(0,0,0); fill-rule: nonzero; opacity: 1;" vector-effect="non-scaling-stroke"  points="8.3,-3.22 3.22,-3.22 3.22,-8.3 -8.3,-8.3 -8.3,8.3 8.3,8.3 8.3,-3.22 " />
</g>
<g transform="matrix(1 0 0 1 274.22 561.49)"  >
<rect style="stroke: none; stroke-width: 1; stroke-dasharray: none; stroke-linecap: butt; stroke-dashoffset: 0; stroke-linejoin: miter; stroke-miterlimit: 4; fill: rgb(0,0,0); fill-rule: nonzero; opacity: 1;" vector-effect="non-scaling-stroke"  x="-5.76" y="-10.03" rx="0" ry="0" width="11.52" height="20.06" />
</g>
<g transform="matrix(1 0 0 1 274.22 526.66)"  >
<rect style="stroke: none; stroke-width: 1; stroke-dasharray: none; stroke-linecap: butt; stroke-dashoffset: 0; stroke-linejoin: miter; stroke-miterlimit: 4; fill: rgb(0,0,0); fill-rule: nonzero; opacity: 1;" vector-effect="non-scaling-stroke"  x="-5.76" y="-10.03" rx="0" ry="0" width="11.52" height="20.06" />
</g>
<g transform="matrix(1 0 0 1 274.22 596.32)"  >
<rect style="stroke: none; stroke-width: 1; stroke-dasharray: none; stroke-linecap: butt; stroke-dashoffset: 0; stroke-linejoin: miter; stroke-miterlimit: 4; fill: rgb(0,0,0); fill-rule: nonzero; opacity: 1;" vector-effect="non-scaling-stroke"  x="-5.76" y="-10.03" rx="0" ry="0" width="11.52" height="20.06" />
</g>
<g transform="matrix(1 0 0 1 274.22 457.02)"  >
<rect style="stroke: none; stroke-width: 1; stroke-dasharray: none; stroke-linecap: butt; stroke-dashoffset: 0; stroke-linejoin: miter; stroke-miterlimit: 4; fill: rgb(0,0,0); fill-rule: nonzero; opacity: 1;" vector-effect="non-scaling-stroke"  x="-5.76" y="-10.03" rx="0" ry="0" width="11.52" height="20.06" />
</g>
<g transform="matrix(1 0 0 1 274.22 491.84)"  >
<rect style="stroke: none; stroke-width: 1; stroke-dasharray: none; stroke-linecap: butt; stroke-dashoffset: 0; stroke-linejoin: miter; stroke-miterlimit: 4; fill: rgb(0,0,0); fill-rule: nonzero; opacity: 1;" vector-effect="non-scaling-stroke"  x="-5.76" y="-10.03" rx="0" ry="0" width="11.52" height="20.06" />
</g>
<g transform="matrix(1 0 0 1 274.22 422.19)"  >
<rect style="stroke: none; stroke-width: 1; stroke-dasharray: none; stroke-linecap: butt; stroke-dashoffset: 0; stroke-linejoin: miter; stroke-miterlimit: 4; fill: rgb(0,0,0); fill-rule: nonzero; opacity: 1;" vector-effect="non-scaling-stroke"  x="-5.76" y="-10.03" rx="0" ry="0" width="11.52" height="20.06" />
</g>
<g transform="matrix(1 0 0 1 276.76 389.1)"  >
<polygon style="stroke: none; stroke-width: 1; stroke-dasharray: none; stroke-linecap: butt; stroke-dashoffset: 0; stroke-linejoin: miter; stroke-miterlimit: 4; fill: rgb(0,0,0); fill-rule: nonzero; opacity: 1;" vector-effect="non-scaling-stroke"  points="3.22,3.21 8.3,3.21 8.3,-8.3 -8.3,-8.3 -8.3,8.3 3.22,8.3 3.22,3.21 " />
</g>
<g transform="matrix(1 0 0 1 417.66 386.56)"  >
<rect style="stroke: none; stroke-width: 1; stroke-dasharray: none; stroke-linecap: butt; stroke-dashoffset: 0; stroke-linejoin: miter; stroke-miterlimit: 4; fill: rgb(0,0,0); fill-rule: nonzero; opacity: 1;" vector-effect="non-scaling-stroke"  x="-10.285" y="-5.76" rx="0" ry="0" width="20.57" height="11.52" />
</g>
<g transform="matrix(1 0 0 1 489.1 386.56)"  >
<rect style="stroke: none; stroke-width: 1; stroke-dasharray: none; stroke-linecap: butt; stroke-dashoffset: 0; stroke-linejoin: miter; stroke-miterlimit: 4; fill: rgb(0,0,0); fill-rule: nonzero; opacity: 1;" vector-effect="non-scaling-stroke"  x="-10.285" y="-5.76" rx="0" ry="0" width="20.57" height="11.52" />
</g>
<g transform="matrix(1 0 0 1 453.38 386.56)"  >
<rect style="stroke: none; stroke-width: 1; stroke-dasharray: none; stroke-linecap: butt; stroke-dashoffset: 0; stroke-linejoin: miter; stroke-miterlimit: 4; fill: rgb(0,0,0); fill-rule: nonzero; opacity: 1;" vector-effect="non-scaling-stroke"  x="-10.285" y="-5.76" rx="0" ry="0" width="20.57" height="11.52" />
</g>
<g transform="matrix(1 0 0 1 346.22 386.56)"  >
<rect style="stroke: none; stroke-width: 1; stroke-dasharray: none; stroke-linecap: butt; stroke-dashoffset: 0; stroke-linejoin: miter; stroke-miterlimit: 4; fill: rgb(0,0,0); fill-rule: nonzero; opacity: 1;" vector-effect="non-scaling-stroke"  x="-10.285" y="-5.76" rx="0" ry="0" width="20.57" height="11.52" />
</g>
<g transform="matrix(1 0 0 1 310.5 386.56)"  >
<rect style="stroke: none; stroke-width: 1; stroke-dasharray: none; stroke-linecap: butt; stroke-dashoffset: 0; stroke-linejoin: miter; stroke-miterlimit: 4; fill: rgb(0,0,0); fill-rule: nonzero; opacity: 1;" vector-effect="non-scaling-stroke"  x="-10.285" y="-5.76" rx="0" ry="0" width="20.57" height="11.52" />
</g>
<g transform="matrix(1 0 0 1 381.94 386.56)"  >
<rect style="stroke: none; stroke-width: 1; stroke-dasharray: none; stroke-linecap: butt; stroke-dashoffset: 0; stroke-linejoin: miter; stroke-miterlimit: 4; fill: rgb(0,0,0); fill-rule: nonzero; opacity: 1;" vector-effect="non-scaling-stroke"  x="-10.285" y="-5.76" rx="0" ry="0" width="20.57" height="11.52" />
</g>
<g transform="matrix(1 0 0 1 522.83 389.1)"  >
<polygon style="stroke: none; stroke-width: 1; stroke-dasharray: none; stroke-linecap: butt; stroke-dashoffset: 0; stroke-linejoin: miter; stroke-miterlimit: 4; fill: rgb(0,0,0); fill-rule: nonzero; opacity: 1;" vector-effect="non-scaling-stroke"  points="-3.22,8.3 8.3,8.3 8.3,-8.3 -8.3,-8.3 -8.3,3.21 -3.22,3.21 -3.22,8.3 " />
</g>
<g transform="matrix(1 0 0 1 525.37 457.02)"  >
<rect style="stroke: none; stroke-width: 1; stroke-dasharray: none; stroke-linecap: butt; stroke-dashoffset: 0; stroke-linejoin: miter; stroke-miterlimit: 4; fill: rgb(0,0,0); fill-rule: nonzero; opacity: 1;" vector-effect="non-scaling-stroke"  x="-5.76" y="-10.03" rx="0" ry="0" width="11.52" height="20.06" />
</g>
<g transform="matrix(1 0 0 1 525.37 526.66)"  >
<rect style="stroke: none; stroke-width: 1; stroke-dasharray: none; stroke-linecap: butt; stroke-dashoffset: 0; stroke-linejoin: miter; stroke-miterlimit: 4; fill: rgb(0,0,0); fill-rule: nonzero; opacity: 1;" vector-effect="non-scaling-stroke"  x="-5.76" y="-10.03" rx="0" ry="0" width="11.52" height="20.06" />
</g>
<g transform="matrix(1 0 0 1 525.37 422.19)"  >
<rect style="stroke: none; stroke-width: 1; stroke-dasharray: none; stroke-linecap: butt; stroke-dashoffset: 0; stroke-linejoin: miter; stroke-miterlimit: 4; fill: rgb(0,0,0); fill-rule: nonzero; opacity: 1;" vector-effect="non-scaling-stroke"  x="-5.76" y="-10.03" rx="0" ry="0" width="11.52" height="20.06" />
</g>
<g transform="matrix(1 0 0 1 525.37 561.49)"  >
<rect style="stroke: none; stroke-width: 1; stroke-dasharray: none; stroke-linecap: butt; stroke-dashoffset: 0; stroke-linejoin: miter; stroke-miterlimit: 4; fill: rgb(0,0,0); fill-rule: nonzero; opacity: 1;" vector-effect="non-scaling-stroke"  x="-5.76" y="-10.03" rx="0" ry="0" width="11.52" height="20.06" />
</g>
<g transform="matrix(1 0 0 1 525.37 596.32)"  >
<rect style="stroke: none; stroke-width: 1; stroke-dasharray: none; stroke-linecap: butt; stroke-dashoffset: 0; stroke-linejoin: miter; stroke-miterlimit: 4; fill: rgb(0,0,0); fill-rule: nonzero; opacity: 1;" vector-effect="non-scaling-stroke"  x="-5.76" y="-10.03" rx="0" ry="0" width="11.52" height="20.06" />
</g>
<g transform="matrix(1 0 0 1 536.69 610.9)"  >
<path style="stroke: none; stroke-width: 1; stroke-dasharray: none; stroke-linecap: butt; stroke-dashoffset: 0; stroke-linejoin: miter; stroke-miterlimit: 4; fill: rgb(0,0,0); fill-rule: nonzero; opacity: 1;" vector-effect="non-scaling-stroke"  transform=" translate(-421.92, -496.1)" d="M 425.24 625.19 C 494.82787847867996 625.19 551.24 568.77787847868 551.24 499.19000000000005 C 551.24 429.6021215213201 494.82787847867996 373.19000000000005 425.24 373.19000000000005 Q 420.75 373.19000000000005 416.36 373.51000000000005 L 416.36 367 L 404.84 367 L 404.84 374.89 C 345.03999999999996 384.66999999999996 299.26 436.69 299.26 499.21 Q 299.26 505.38 299.84999999999997 511.39 L 292.6 511.39 L 292.6 522.91 L 301.5 522.91 C 312.62 581.08 363.87 625.19 425.24 625.19 Z M 310.78000000000003 499.19000000000005 C 310.85445923186575 443.86871875480375 350.4188220892317 396.48906925178756 404.84 386.55000000000007 L 404.84000000000003 387.0400000000001 L 416.36 387.0400000000001 L 416.36 385.0400000000001 C 419.29 384.82000000000005 422.25 384.7000000000001 425.24 384.7000000000001 C 485.40777880908945 384.7122383906687 535.2944374840388 431.30611710066415 539.408796162289 491.33305946211067 C 543.5231548405393 551.3600018235572 500.4604340286718 604.3248045067714 440.8570164851215 612.5463842653655 C 381.2535989415712 620.7679640239596 325.4600824752925 581.4391988854536 313.17 522.5399999999998 L 313.17 511.39 L 311.43 511.39 C 310.99613485342445 507.3445083662808 310.77915769919457 503.27869030701953 310.78 499.21000000000004 Z" stroke-linecap="round" />
</g>
<g transform="matrix(1 0 0 1 401.64 614.01)"  >
<polygon style="stroke: none; stroke-width: 1; stroke-dasharray: none; stroke-linecap: butt; stroke-dashoffset: 0; stroke-linejoin: miter; stroke-miterlimit: 4; fill: rgb(0,123,255); fill-rule: nonzero; opacity: 1;" vector-effect="non-scaling-stroke"  points="0,-84.06 48.54,0 97.06,84.06 0,84.06 -97.06,84.06 -48.53,0 0,-84.06 " />
</g>
<g transform="matrix(NaN NaN NaN NaN 0 0)"  >
<g style=""   >
</g>
</g>
<g transform="matrix(NaN NaN NaN NaN 0 0)"  >
<g style=""   >
</g>
</g>
</svg>