<?xml version="1.0" encoding="UTF-8" standalone="no" ?>
<!DOCTYPE svg PUBLIC "-//W3C//DTD SVG 1.1//EN" "http://www.w3.org/Graphics/SVG/1.1/DTD/svg11.dtd">
<svg xmlns="http://www.w3.org/2000/svg" xmlns:xlink="http://www.w3.org/1999/xlink" version="1.1" width="1080" height="1080" viewBox="0 0 1080 1080" xml:space="preserve">
<desc>Created with Fabric.js 5.2.4</desc>
<defs>
</defs>
<g transform="matrix(1 0 0 1 540 540)" id="301c323a-18e8-4527-9b6a-abfdc4db3dfa"  >
</g>
<g transform="matrix(1 0 0 1 540 540)" id="d9fbc83a-fdaf-4ac5-872a-9eb5bf4c3d82"  >
<rect style="stroke: none; stroke-width: 1; stroke-dasharray: none; stroke-linecap: butt; stroke-dashoffset: 0; stroke-linejoin: miter; stroke-miterlimit: 4; fill: rgb(255,255,255); fill-rule: nonzero; opacity: 1; visibility: hidden;" vector-effect="non-scaling-stroke"  x="-540" y="-540" rx="0" ry="0" width="1080" height="1080" />
</g>
<g transform="matrix(1 0 0 1 540 540)"  >
<path style="stroke: none; stroke-width: 1; stroke-dasharray: none; stroke-linecap: butt; stroke-dashoffset: 0; stroke-linejoin: miter; stroke-miterlimit: 4; fill: rgb(0,0,0); fill-rule: nonzero; opacity: 1;" vector-effect="non-scaling-stroke"  transform=" translate(-425.2, -444.02)" d="M 849.49 463.53 L 850.16 463.53 L 849.63 177.41999999999996 L 837.7 177.41999999999996 L 838.11 397.69999999999993 L 525.06 397.69999999999993 L 524.8399999999999 176.55999999999995 L 512.8999999999999 176.55999999999995 L 513.1999999999998 463.55999999999995 L 519.1999999999998 463.55999999999995 L 513.1999999999998 463.65999999999997 L 514.1999999999998 524.89 C 514.2187995290491 529.6112505349279 515.9612992869074 534.1630866370886 519.0999999999998 537.6899999999999 C 522.0299999999997 541.43 527.3799999999998 543.8599999999999 532.5899999999998 543.8699999999999 C 597.7999999999998 543.9699999999999 642.1399999999998 595.5099999999999 642.5899999999998 643.5999999999999 C 642.7799999999999 656.9499999999999 638.4599999999998 675.3699999999999 633.4299999999998 694.2799999999999 L 146.6 694.2799999999999 C 127.20022734926906 694.2579680897157 111.47755183321016 678.5397655965633 111.44999999999999 659.1399999999999 L 111.44999999999999 615.68 L 350.14 615.68 C 372.50943839854267 615.6579502664424 390.63795026644243 597.5294383985427 390.65999999999997 575.16 L 390.65999999999997 282.15999999999997 C 390.63795026644243 259.7905616014573 372.50943839854267 241.6620497335575 350.14 241.63999999999996 L 152.56 241.63999999999996 L 152.56 224.37 L 140.63 224.37 L 140.63 241.6 L 111.45 241.6 L 111.45 105.6 C 111.4854492372194 88.51149824940246 123.79252084601981 73.91846611559527 140.62999999999997 71 L 140.63 87.52 L 152.56 87.52 L 152.56 70.46 L 673.94 70.46 C 693.3436709527952 70.48204338509213 709.0679566149079 86.20632904720489 709.09 105.61000000000001 L 709.09 145.79 L 721 145.79 L 721 105.61 C 720.972441772474 79.61985752816972 699.9101424718302 58.557558227525995 673.92 58.530000000000015 L 146.6 58.53 C 120.60985752816974 58.55755822752601 99.547558227526 79.61985752816975 99.52 105.61000000000001 L 99.52 241.61 L 40.519999999999996 241.61 C 18.156740983734768 241.63753691413544 0.033056661211126936 259.7567484616535 0 282.12 L 0 575.12 C 0.027549183788142983 597.4871568792008 18.152843120799165 615.6124508162119 40.519999999999996 615.64 L 99.52000000000001 615.64 L 99.52000000000001 659.0799999999999 C 99.553067840545 685.0662371443991 120.61375641741681 706.1224523379708 146.60000000000002 706.15 L 630.27 706.15 C 630.1999999999999 706.39 630.14 706.63 630.0699999999999 706.87 C 624.0699999999999 728.74 618.4799999999999 749.4 618.3499999999999 764.08 L 618.3499999999999 765.39 C 618.3499999999999 767.67 618.3499999999999 795.62 643.3499999999999 815.5 C 654.9281757110938 824.6340734544965 669.2627769983789 829.5697453192774 684.0099999999999 829.5 C 701.8207338282497 829.5667294321609 718.9044677228424 822.4418965542134 731.3899999999999 809.74 C 750.3899999999999 790.22 750.1999999999998 767.98 750.0699999999998 764.94 C 750.3399999999998 752.5300000000001 744.5099999999999 732.0500000000001 737.7799999999999 708.37 C 731.1499999999999 685.07 723.6399999999999 658.67 723.4199999999998 642.45 C 723.1699999999998 618.98 734.1399999999999 593.82 752.7399999999999 575.1400000000001 C 773.1099999999999 554.69 800.8499999999999 543.45 830.9799999999999 543.45 L 831.7499999999999 543.45 C 842.7499999999999 543.45 850.4199999999998 533.9000000000001 850.3899999999999 525.3000000000001 Z M 350.14 253.52999999999997 C 365.92296676260906 253.54653533761208 378.7134646623878 266.3370332373908 378.72999999999996 282.11999999999995 L 378.72999999999996 575.1199999999999 C 378.7134646623879 590.902966762609 365.9229667626091 603.6934646623878 350.14 603.7099999999999 L 152.56 603.7099999999999 L 152.56 584.08 L 140.63 584.08 L 140.63 603.75 L 111.45 603.75 L 111.45 253.53 Z M 40.52 603.75 C 24.73931413226363 603.7279675966107 11.952032403389317 590.9406858677363 11.93 575.16 L 11.930000000000003 282.15999999999997 C 11.95203240338933 266.3793141322636 24.739314132263623 253.5920324033893 40.51999999999999 253.56999999999996 L 99.52000000000001 253.56999999999996 L 99.52000000000001 603.75 Z M 838.13 409.65 L 838.21 450.87 L 525.12 450.87 L 525.12 409.65 Z M 831.77 531.5899999999999 L 830.92 531.5899999999999 C 797.65 531.5899999999999 766.92 544.0699999999999 744.28 566.79 C 723.47 587.6899999999999 711.2099999999999 616.04 711.48 642.66 C 711.73 660.49 719.14 686.52 726.3000000000001 711.66 C 732.3000000000001 732.66 738.4300000000001 754.3199999999999 738.1400000000001 764.87 L 738.1400000000001 765.15 L 738.1400000000001 765.43 C 738.1400000000001 765.62 739.2 784.65 722.8400000000001 801.43 C 703.7400000000001 821.03 672.0800000000002 823.0999999999999 650.7700000000002 806.14 C 638.2982472219531 796.2987789991668 630.8012056326385 781.4583687081661 630.2800000000002 765.5799999999999 L 630.2800000000002 764.0899999999999 C 630.3900000000002 751.03 635.8200000000002 731.0899999999999 641.5700000000002 709.9899999999999 C 648.0900000000001 686.0799999999999 654.8300000000002 661.3599999999999 654.5700000000002 643.3799999999999 C 654.0100000000002 589.6099999999999 604.8700000000001 531.9699999999999 532.5700000000002 531.8499999999999 L 532.5700000000002 531.8499999999999 C 531.0590046451778 531.8449604576834 529.6055426795291 531.2700037587414 528.5000000000001 530.2399999999999 L 528.2100000000002 529.8399999999999 L 527.8600000000001 529.4899999999999 C 526.7596342985628 528.1277574492905 526.1564685171346 526.4311332336943 526.1500000000001 524.68 L 525.1500000000001 463.37999999999994 L 525.1500000000001 463.37999999999994 L 525.1500000000001 462.74999999999994 L 837.54 462.74999999999994 L 838.4599999999999 525.43 C 838.0941701529011 528.8724165642783 835.2308503976911 531.5088963388813 831.77 531.59 Z" stroke-linecap="round" />
</g>
<g transform="matrix(1 0 0 1 261.39 571.66)"  >
<rect style="stroke: none; stroke-width: 1; stroke-dasharray: none; stroke-linecap: butt; stroke-dashoffset: 0; stroke-linejoin: miter; stroke-miterlimit: 4; fill: rgb(0,0,0); fill-rule: nonzero; opacity: 1;" vector-effect="non-scaling-stroke"  x="-5.965" y="-11.51" rx="0" ry="0" width="11.93" height="23.02" />
</g>
<g transform="matrix(1 0 0 1 261.39 531.7)"  >
<rect style="stroke: none; stroke-width: 1; stroke-dasharray: none; stroke-linecap: butt; stroke-dashoffset: 0; stroke-linejoin: miter; stroke-miterlimit: 4; fill: rgb(0,0,0); fill-rule: nonzero; opacity: 1;" vector-effect="non-scaling-stroke"  x="-5.965" y="-11.51" rx="0" ry="0" width="11.93" height="23.02" />
</g>
<g transform="matrix(1 0 0 1 261.39 411.79)"  >
<rect style="stroke: none; stroke-width: 1; stroke-dasharray: none; stroke-linecap: butt; stroke-dashoffset: 0; stroke-linejoin: miter; stroke-miterlimit: 4; fill: rgb(0,0,0); fill-rule: nonzero; opacity: 1;" vector-effect="non-scaling-stroke"  x="-5.965" y="-11.51" rx="0" ry="0" width="11.93" height="23.02" />
</g>
<g transform="matrix(1 0 0 1 261.39 611.63)"  >
<rect style="stroke: none; stroke-width: 1; stroke-dasharray: none; stroke-linecap: butt; stroke-dashoffset: 0; stroke-linejoin: miter; stroke-miterlimit: 4; fill: rgb(0,0,0); fill-rule: nonzero; opacity: 1;" vector-effect="non-scaling-stroke"  x="-5.965" y="-11.51" rx="0" ry="0" width="11.93" height="23.02" />
</g>
<g transform="matrix(1 0 0 1 261.39 371.83)"  >
<rect style="stroke: none; stroke-width: 1; stroke-dasharray: none; stroke-linecap: butt; stroke-dashoffset: 0; stroke-linejoin: miter; stroke-miterlimit: 4; fill: rgb(0,0,0); fill-rule: nonzero; opacity: 1;" vector-effect="non-scaling-stroke"  x="-5.965" y="-11.51" rx="0" ry="0" width="11.93" height="23.02" />
</g>
<g transform="matrix(1 0 0 1 261.39 491.73)"  >
<rect style="stroke: none; stroke-width: 1; stroke-dasharray: none; stroke-linecap: butt; stroke-dashoffset: 0; stroke-linejoin: miter; stroke-miterlimit: 4; fill: rgb(0,0,0); fill-rule: nonzero; opacity: 1;" vector-effect="non-scaling-stroke"  x="-5.965" y="-11.51" rx="0" ry="0" width="11.93" height="23.02" />
</g>
<g transform="matrix(1 0 0 1 261.39 451.76)"  >
<rect style="stroke: none; stroke-width: 1; stroke-dasharray: none; stroke-linecap: butt; stroke-dashoffset: 0; stroke-linejoin: miter; stroke-miterlimit: 4; fill: rgb(0,0,0); fill-rule: nonzero; opacity: 1;" vector-effect="non-scaling-stroke"  x="-5.965" y="-11.51" rx="0" ry="0" width="11.93" height="23.02" />
</g>
<g transform="matrix(1 0 0 1 261.39 651.6)"  >
<rect style="stroke: none; stroke-width: 1; stroke-dasharray: none; stroke-linecap: butt; stroke-dashoffset: 0; stroke-linejoin: miter; stroke-miterlimit: 4; fill: rgb(0,0,0); fill-rule: nonzero; opacity: 1;" vector-effect="non-scaling-stroke"  x="-5.965" y="-11.51" rx="0" ry="0" width="11.93" height="23.02" />
</g>
<g transform="matrix(1 0 0 1 261.39 211.96)"  >
<rect style="stroke: none; stroke-width: 1; stroke-dasharray: none; stroke-linecap: butt; stroke-dashoffset: 0; stroke-linejoin: miter; stroke-miterlimit: 4; fill: rgb(0,0,0); fill-rule: nonzero; opacity: 1;" vector-effect="non-scaling-stroke"  x="-5.965" y="-11.51" rx="0" ry="0" width="11.93" height="23.02" />
</g>
<g transform="matrix(1 0 0 1 261.39 771.5)"  >
<rect style="stroke: none; stroke-width: 1; stroke-dasharray: none; stroke-linecap: butt; stroke-dashoffset: 0; stroke-linejoin: miter; stroke-miterlimit: 4; fill: rgb(0,0,0); fill-rule: nonzero; opacity: 1;" vector-effect="non-scaling-stroke"  x="-5.965" y="-11.51" rx="0" ry="0" width="11.93" height="23.02" />
</g>
<g transform="matrix(1 0 0 1 261.39 731.54)"  >
<rect style="stroke: none; stroke-width: 1; stroke-dasharray: none; stroke-linecap: butt; stroke-dashoffset: 0; stroke-linejoin: miter; stroke-miterlimit: 4; fill: rgb(0,0,0); fill-rule: nonzero; opacity: 1;" vector-effect="non-scaling-stroke"  x="-5.965" y="-11.51" rx="0" ry="0" width="11.93" height="23.02" />
</g>
<g transform="matrix(1 0 0 1 261.39 251.92)"  >
<rect style="stroke: none; stroke-width: 1; stroke-dasharray: none; stroke-linecap: butt; stroke-dashoffset: 0; stroke-linejoin: miter; stroke-miterlimit: 4; fill: rgb(0,0,0); fill-rule: nonzero; opacity: 1;" vector-effect="non-scaling-stroke"  x="-5.965" y="-11.51" rx="0" ry="0" width="11.93" height="23.02" />
</g>
<g transform="matrix(1 0 0 1 261.39 291.89)"  >
<rect style="stroke: none; stroke-width: 1; stroke-dasharray: none; stroke-linecap: butt; stroke-dashoffset: 0; stroke-linejoin: miter; stroke-miterlimit: 4; fill: rgb(0,0,0); fill-rule: nonzero; opacity: 1;" vector-effect="non-scaling-stroke"  x="-5.965" y="-11.51" rx="0" ry="0" width="11.93" height="23.02" />
</g>
<g transform="matrix(1 0 0 1 798.7 858.83)"  >
<path style="stroke: none; stroke-width: 1; stroke-dasharray: none; stroke-linecap: butt; stroke-dashoffset: 0; stroke-linejoin: miter; stroke-miterlimit: 4; fill: rgb(0,0,0); fill-rule: nonzero; opacity: 1;" vector-effect="non-scaling-stroke"  transform=" translate(-683.9, -762.85)" d="M 683.91 729 C 670.2171338268564 728.9959554372857 657.8704943187346 737.2417604443623 652.628592776862 749.8915457634663 C 647.3866912349895 762.5413310825702 650.282117986214 777.1032441192058 659.9644369335041 786.7855630664959 C 669.6467558807941 796.467882013786 684.2086689174297 799.3633087650105 696.8584542365337 794.121407223138 C 709.5082395556377 788.8795056812655 717.7540445627142 776.5328661731436 717.75 762.84 C 717.7279584685384 744.159821584479 702.5901784155209 729.0220415314615 683.91 729 Z M 683.91 784.76 C 675.04327870012 784.7640450375103 667.047382730942 779.4259738882182 663.6514321769531 771.2353522508249 C 660.2554816229643 763.0447306134315 662.1283946350391 753.6149080915585 668.3966834193455 747.3437583812893 C 674.664972203652 741.07260867102 684.0939391177823 739.1953929463202 692.2861095033628 742.5876056969728 C 700.4782798889433 745.9798184476253 705.819999077318 753.9732777774382 705.8199999999999 762.84 C 705.8255306105725 774.9493252966221 696.0193152409884 784.7734433871 683.91 784.79 Z" stroke-linecap="round" />
</g>
<g transform="matrix(1 0 0 1 795.81 339.35)"  >
<path style="stroke: none; stroke-width: 1; stroke-dasharray: none; stroke-linecap: butt; stroke-dashoffset: 0; stroke-linejoin: miter; stroke-miterlimit: 4; fill: rgb(0,123,255); fill-rule: nonzero; opacity: 1;" vector-effect="non-scaling-stroke"  transform=" translate(-681, -243.37)" d="M 822.93 146.54 L 529.8 146 C 525.065038635116 145.97270230718865 520.5181279765852 147.85121530164113 517.1831418306922 151.2125352354882 C 513.8481556847992 154.57385516933525 512.0054624582785 159.13539978491482 512.0699999999999 163.87 L 512.14 185.95 C 512.14 185.95 616 181.32 646.76 204.46 C 669.7 221.71 672 264.32 672 264.32 C 674.31 286.8 681.61 293.9 692.3 293.15 C 702.9899999999999 292.4 712.1999999999999 282.39 711.4499999999999 272.41999999999996 L 710.93 324.41999999999996 C 710.7216231709925 329.30244195558214 712.5783993179944 334.0470210177648 716.0453480454903 337.491135834871 C 719.5122967729862 340.93525065197724 724.2690415628831 342.76063475982033 729.15 342.52 C 739.4400369684568 342.1696699198227 747.6805491662717 333.87220575041187 747.9599999999999 323.58 L 747.8799999999999 299.36 C 747.9568708932817 309.37505982764435 756.0946465120544 317.4548041337215 766.1099999999999 317.46000000000004 C 770.8450224285639 317.4845135551891 775.3913212243518 315.6054386531576 778.7272871506543 312.2450265278461 C 782.0632530769568 308.8846144025347 783.9090843543197 304.3247172410257 783.8499999999999 299.59000000000003 L 785.6099999999999 249.70000000000005 C 788.2199999999999 219.10000000000005 801.2799999999999 199.70000000000005 816.8199999999999 192.61000000000004 C 832.36 185.52000000000004 849.9399999999999 182.24000000000004 849.9399999999999 182.24000000000004 L 849.8699999999999 161.58000000000004 C 850.5499999999998 152.32000000000005 844.6699999999998 146.50000000000003 834.6999999999999 146.58000000000004 Z M 834.65 144.19" stroke-linecap="round" />
</g>
<g transform="matrix(NaN NaN NaN NaN 0 0)"  >
<g style=""   >
</g>
</g>
<g transform="matrix(NaN NaN NaN NaN 0 0)"  >
<g style=""   >
</g>
</g>
</svg>