<?xml version="1.0" encoding="UTF-8" standalone="no" ?>
<!DOCTYPE svg PUBLIC "-//W3C//DTD SVG 1.1//EN" "http://www.w3.org/Graphics/SVG/1.1/DTD/svg11.dtd">
<svg xmlns="http://www.w3.org/2000/svg" xmlns:xlink="http://www.w3.org/1999/xlink" version="1.1" width="1080" height="1080" viewBox="0 0 1080 1080" xml:space="preserve">
<desc>Created with Fabric.js 5.2.4</desc>
<defs>
</defs>
<g transform="matrix(1 0 0 1 540 540)" id="087159ae-d01d-43b9-a38c-ca035537f12f"  >
<rect style="stroke: none; stroke-width: 1; stroke-dasharray: none; stroke-linecap: butt; stroke-dashoffset: 0; stroke-linejoin: miter; stroke-miterlimit: 4; fill: rgb(255,255,255); fill-rule: nonzero; opacity: 1; visibility: hidden;" vector-effect="non-scaling-stroke"  x="-540" y="-540" rx="0" ry="0" width="1080" height="1080" />
</g>
<g transform="matrix(1 0 0 1 540 540)" id="04fbf65a-b7e9-4d41-a5cf-26887444266c"  >
</g>
<g transform="matrix(1 0 0 1 339.47 638.06)"  >
<path style="stroke: none; stroke-width: 1; stroke-dasharray: none; stroke-linecap: butt; stroke-dashoffset: 0; stroke-linejoin: miter; stroke-miterlimit: 4; fill: rgb(0,123,255); fill-rule: nonzero; opacity: 1;" vector-effect="non-scaling-stroke"  transform=" translate(-224.67, -532.95)" d="M 211.78 532.91 L 211.78 533.6 L 267 556.84 L 267 587.84 L 182.33 546 L 182.33 519.74 L 267 478.05 L 267 509 Z" stroke-linecap="round" />
</g>
<g transform="matrix(1 0 0 1 494.88 624.19)"  >
<path style="stroke: none; stroke-width: 1; stroke-dasharray: none; stroke-linecap: butt; stroke-dashoffset: 0; stroke-linejoin: miter; stroke-miterlimit: 4; fill: rgb(0,123,255); fill-rule: nonzero; opacity: 1;" vector-effect="non-scaling-stroke"  transform=" translate(-380.08, -519.07)" d="M 367 609.57 L 343.58 609.57 L 393.03999999999996 428.57000000000005 L 416.58 428.57000000000005 Z" stroke-linecap="round" />
</g>
<g transform="matrix(1 0 0 1 648.38 638.11)"  >
<path style="stroke: none; stroke-width: 1; stroke-dasharray: none; stroke-linecap: butt; stroke-dashoffset: 0; stroke-linejoin: miter; stroke-miterlimit: 4; fill: rgb(0,123,255); fill-rule: nonzero; opacity: 1;" vector-effect="non-scaling-stroke"  transform=" translate(-533.58, -532.99)" d="M 546.68 533.25 L 546.68 532.56 L 490.92 509 L 490.92 478.05 L 576.23 519.74 L 576.23 546.08 L 490.92 587.9300000000001 L 490.92 557.06 Z" stroke-linecap="round" />
</g>
<g transform="matrix(1 0 0 1 482.84 593.88)"  >
<path style="stroke: none; stroke-width: 1; stroke-dasharray: none; stroke-linecap: butt; stroke-dashoffset: 0; stroke-linejoin: miter; stroke-miterlimit: 4; fill: rgb(0,0,0); fill-rule: nonzero; opacity: 1;" vector-effect="non-scaling-stroke"  transform=" translate(-369.94, -492.58)" d="M 53.58 681 L 686.31 681 L 686.31 304.16 L 53.58 304.16 Z M 62.06 312.61 L 677.83 312.61 L 677.83 359.79 L 62.06 359.79 Z M 62.06 368.27 L 677.83 368.27 L 677.83 672.55 L 62.06 672.55 Z" stroke-linecap="round" />
</g>
<g transform="matrix(1 0 0 1 205.49 439.96)"  >
<path style="stroke: none; stroke-width: 1; stroke-dasharray: none; stroke-linecap: butt; stroke-dashoffset: 0; stroke-linejoin: miter; stroke-miterlimit: 4; fill: rgb(0,0,0); fill-rule: nonzero; opacity: 1;" vector-effect="non-scaling-stroke"  transform=" translate(-90.68, -334.84)" d="M 90.68 319.35 C 82.12510922512101 319.35 75.19 326.285109225121 75.19 334.84000000000003 C 75.19 343.394890774879 82.12510922512101 350.33000000000004 90.68 350.33000000000004 C 99.23489077487899 350.33000000000004 106.17 343.394890774879 106.17 334.84000000000003 C 106.1589815293031 326.2896773839322 99.23032261606784 319.36101847069693 90.68 319.35 Z M 90.68 341.85 C 86.81400675118445 341.85 83.68 338.71599324881555 83.68 334.85 C 83.68 330.9840067511845 86.81400675118445 327.85 90.68 327.85 C 94.54599324881556 327.85 97.68 330.98400675118444 97.68 334.85 C 97.68 338.71599324881555 94.54599324881556 341.85 90.68 341.85 Z" stroke-linecap="round" />
</g>
<g transform="matrix(1 0 0 1 241.79 439.96)"  >
<path style="stroke: none; stroke-width: 1; stroke-dasharray: none; stroke-linecap: butt; stroke-dashoffset: 0; stroke-linejoin: miter; stroke-miterlimit: 4; fill: rgb(0,0,0); fill-rule: nonzero; opacity: 1;" vector-effect="non-scaling-stroke"  transform=" translate(-126.99, -334.84)" d="M 127 319.35 C 120.7339714001848 319.34595479024836 115.08268697085589 323.11740630739723 112.68197815388302 328.90530125750934 C 110.28126933691016 334.6931962076214 111.60405850806634 341.35736090066825 116.03337985508361 345.78954356638513 C 120.46270120210087 350.221726232102 127.12601026657428 351.54881875287316 132.915454354365 349.15184817905106 C 138.70489844215572 346.754877605229 142.47999869425107 341.106029905564 142.48 334.84000000000003 C 142.46899542799662 326.29357399593727 135.54641711536223 319.3665237334885 127 319.35 Z M 127 341.85 C 123.13400675118444 341.85 120 338.71599324881555 120 334.85 C 120 330.9840067511845 123.13400675118444 327.85 127 327.85 C 130.86599324881556 327.85 134 330.98400675118444 134 334.85 C 134 338.71599324881555 130.86599324881556 341.85 127 341.85 Z" stroke-linecap="round" />
</g>
<g transform="matrix(1 0 0 1 540 540)"  >
<path style="stroke: none; stroke-width: 1; stroke-dasharray: none; stroke-linecap: butt; stroke-dashoffset: 0; stroke-linejoin: miter; stroke-miterlimit: 4; fill: rgb(0,0,0); fill-rule: nonzero; opacity: 1;" vector-effect="non-scaling-stroke"  transform=" translate(-425.19, -434.88)" d="M 824.67 293 L 850.39 282.58 L 850.1899999999999 279.52 C 849.5641732543899 270.3110267008467 848.3449753884204 261.1520114995086 846.54 252.10000000000002 L 845.9399999999999 249.09999999999997 L 818.4999999999999 245.43999999999997 L 809 221.91 L 826 200 L 824.46 197.5 C 819.6224133431949 189.6236399608876 814.0617305749164 182.21497592344008 807.85 175.37 L 805.85 173.18 L 780.28 183.52 L 760.28 168 L 763.9 140.91 L 759.9 138.25 L 759.3299999999999 137.94 C 751.5899999999999 134.35999999999999 743.5899999999999 130.67 735.5099999999999 128.18 L 732.7099999999999 127.32000000000001 L 715.7099999999999 149.19 L 690.7099999999999 145.69 L 680.3299999999999 119.42999999999999 L 677.2499999999999 119.63999999999999 C 668.2499999999999 120.22999999999999 659.0499999999998 120.84999999999998 649.8199999999999 122.63999999999999 L 646.8199999999999 123.22999999999999 L 643.17 150.7 L 619 160.82 L 597.13 143.82 L 594.63 145.37 C 586.7681720700427 150.2181895052846 579.3731425030413 155.78538469311772 572.54 162.00000000000003 L 570.3499999999999 164 L 578.1499999999999 183.27 L 577.5899999999999 183.27 L 577.5899999999999 192.96 L 578.0699999999999 192.96 L 565.17 209.60000000000002 L 537.81 205.95000000000002 L 536.42 208.53000000000003 C 532.0209822421454 216.7851322120221 528.3407308872736 225.40361174852185 525.42 234.29000000000005 L 524.42 237.13000000000002 L 546.36 254.19000000000003 L 545.23 262.24 L 298.23 262.24 L 298.23 259.42 L 288.54 259.42 L 288.54 262.24 L 69.92 262.24 C 46.72737666534056 262.2950732427217 27.94747937253814 281.09732755611077 27.92 304.29 L 27.92 699.45 L 0 699.45 L 0 729.08 C 0 741.2 18.08 750.33 42.05 750.33 L 701.42 750.33 C 725.42 750.33 743.4699999999999 741.2 743.4699999999999 729.08 L 743.4699999999999 699.45 L 715.59 699.45 L 715.59 614.45 L 718.4 614.45 L 718.4 604.76 L 715.59 604.76 L 715.59 448.76 C 716.4 448.57 717.22 448.38 718.0400000000001 448.15999999999997 L 720.7700000000001 447.42999999999995 L 724.4100000000001 420.19999999999993 L 747.9300000000001 410.68999999999994 L 769.82 427.68999999999994 L 772.32 426.1499999999999 C 780.2000878420815 421.3133146588807 787.6121528672211 415.75259198193544 794.46 409.53999999999996 L 796.64 407.5399999999999 L 786.3 382 L 801.8199999999999 362 L 829.18 365.64 L 830.5699999999999 363.07 C 834.9690177578545 354.81486778797796 838.6492691127263 346.1963882514782 841.5699999999999 337.31 L 842.5699999999999 334.47 L 820.68 317.47 Z M 36.35 304.23 C 36.372041131480195 285.69893836227374 51.388938362273734 270.6820411314802 69.91999999999999 270.66 L 673.53 270.66 C 692.0718173582086 270.6599991778313 707.1044783152596 285.68818346396 707.11 304.23 L 707.11 699.45 L 36.35 699.45 Z M 735 707.93 L 735 729.0799999999999 C 735 734.41 722.23 741.8499999999999 701.43 741.8499999999999 L 42.05 741.8499999999999 C 21.249999999999996 741.8499999999999 8.479999999999997 734.4099999999999 8.479999999999997 729.0799999999999 L 8.479999999999997 707.93 Z M 703.27 274.49 C 695.3991521054918 266.5785688041799 684.6897408208637 262.14572237130255 673.53 262.18 L 598.93 262.18 C 610.0528806982572 222.0467014565309 647.6893559683036 195.128318444547 689.2637631363434 197.57143031937477 C 730.8381703043833 200.01454219420253 765.0627805478196 231.15582778772867 771.4084861206654 272.3156643737701 C 777.7541916935112 313.4755009598116 754.4980912106714 353.4787183937223 715.59 368.33 L 715.59 304.23 C 715.6160579928767 293.06991530407055 711.1803796828541 282.36236068231136 703.27 274.49 Z M 832.6 337.4 C 830.3161192992656 343.90730757996533 827.6000721336956 350.2547732805595 824.47 356.4 L 798.11 352.89 L 776.61 380.64 L 786.5500000000001 405.21 C 781.4512743936461 409.63947077519805 776.0406573838567 413.69659804504636 770.36 417.34999999999997 L 749.27 400.93999999999994 L 716.65 414.13999999999993 L 715.59 422.13999999999993 L 715.59 377.34 C 759.4132218843685 362.2676477452611 786.4156318330812 318.2601664180792 780.002300897049 272.36332812694576 C 773.5889699610169 226.4664898358123 735.5577249389723 191.54639593740174 689.2815095861195 189.06396337358387 C 643.0052942332666 186.581530809766 601.4565593610617 217.2326512838994 590.17 262.18 L 553.8 262.18 L 555.4399999999999 250.45000000000002 L 534.4399999999999 234.08 C 536.7206341846774 227.5714302126879 539.4367731864481 221.22374988874643 542.5699999999999 215.08000000000004 L 568.92 218.60000000000002 L 590.43 190.85000000000002 L 580.4799999999999 166.28000000000003 C 585.5780950716304 161.8497485011437 590.9887698340266 157.7925779257583 596.6699999999998 154.14000000000007 L 617.78 170.56000000000006 L 651 156.72 L 654.49 130.47 C 661.2094309080784 129.4098424191732 667.9780121421788 128.68892844157665 674.7699999999999 128.30999999999997 L 684.6899999999999 153.41 L 719.43 158.28 L 735.8399999999999 137.19 C 742.16 139.37 748.5799999999999 142.29 754.8399999999999 145.19 L 751.3 171.73 L 779 193.22 L 803.58 183.28 C 808.0039108152118 188.38321322041625 812.060732340178 193.79342248641322 815.72 199.47000000000003 L 799.32 220.56 L 812.5 253.18 L 838.8 256.69 C 840.038391014405 263.41069687553465 840.9395190409941 270.1891821422113 841.5 276.9999999999999 L 817.07 286.89 L 811.51 321 Z" stroke-linecap="round" />
</g>
<g transform="matrix(1 0 0 1 408.22 345.2)"  >
<rect style="stroke: none; stroke-width: 1; stroke-dasharray: none; stroke-linecap: butt; stroke-dashoffset: 0; stroke-linejoin: miter; stroke-miterlimit: 4; fill: rgb(0,0,0); fill-rule: nonzero; opacity: 1;" vector-effect="non-scaling-stroke"  x="-4.845" y="-6.425" rx="0" ry="0" width="9.69" height="12.85" />
</g>
<g transform="matrix(1 0 0 1 408.22 319.5)"  >
<rect style="stroke: none; stroke-width: 1; stroke-dasharray: none; stroke-linecap: butt; stroke-dashoffset: 0; stroke-linejoin: miter; stroke-miterlimit: 4; fill: rgb(0,0,0); fill-rule: nonzero; opacity: 1;" vector-effect="non-scaling-stroke"  x="-4.845" y="-6.425" rx="0" ry="0" width="9.69" height="12.85" />
</g>
<g transform="matrix(1 0 0 1 409.32 294.28)"  >
<polygon style="stroke: none; stroke-width: 1; stroke-dasharray: none; stroke-linecap: butt; stroke-dashoffset: 0; stroke-linejoin: miter; stroke-miterlimit: 4; fill: rgb(0,0,0); fill-rule: nonzero; opacity: 1;" vector-effect="non-scaling-stroke"  points="3.74,3.74 5.95,3.74 5.95,-5.95 -5.95,-5.95 -5.95,5.95 3.74,5.95 3.74,3.74 " />
</g>
<g transform="matrix(1 0 0 1 612.17 293.18)"  >
<rect style="stroke: none; stroke-width: 1; stroke-dasharray: none; stroke-linecap: butt; stroke-dashoffset: 0; stroke-linejoin: miter; stroke-miterlimit: 4; fill: rgb(0,0,0); fill-rule: nonzero; opacity: 1;" vector-effect="non-scaling-stroke"  x="-7.295" y="-4.845" rx="0" ry="0" width="14.59" height="9.69" />
</g>
<g transform="matrix(1 0 0 1 553.83 293.18)"  >
<rect style="stroke: none; stroke-width: 1; stroke-dasharray: none; stroke-linecap: butt; stroke-dashoffset: 0; stroke-linejoin: miter; stroke-miterlimit: 4; fill: rgb(0,0,0); fill-rule: nonzero; opacity: 1;" vector-effect="non-scaling-stroke"  x="-7.295" y="-4.845" rx="0" ry="0" width="14.59" height="9.69" />
</g>
<g transform="matrix(1 0 0 1 670.52 293.18)"  >
<rect style="stroke: none; stroke-width: 1; stroke-dasharray: none; stroke-linecap: butt; stroke-dashoffset: 0; stroke-linejoin: miter; stroke-miterlimit: 4; fill: rgb(0,0,0); fill-rule: nonzero; opacity: 1;" vector-effect="non-scaling-stroke"  x="-7.295" y="-4.845" rx="0" ry="0" width="14.59" height="9.69" />
</g>
<g transform="matrix(1 0 0 1 641.35 293.18)"  >
<rect style="stroke: none; stroke-width: 1; stroke-dasharray: none; stroke-linecap: butt; stroke-dashoffset: 0; stroke-linejoin: miter; stroke-miterlimit: 4; fill: rgb(0,0,0); fill-rule: nonzero; opacity: 1;" vector-effect="non-scaling-stroke"  x="-7.295" y="-4.845" rx="0" ry="0" width="14.59" height="9.69" />
</g>
<g transform="matrix(1 0 0 1 583 293.18)"  >
<rect style="stroke: none; stroke-width: 1; stroke-dasharray: none; stroke-linecap: butt; stroke-dashoffset: 0; stroke-linejoin: miter; stroke-miterlimit: 4; fill: rgb(0,0,0); fill-rule: nonzero; opacity: 1;" vector-effect="non-scaling-stroke"  x="-7.295" y="-4.845" rx="0" ry="0" width="14.59" height="9.69" />
</g>
<g transform="matrix(1 0 0 1 524.66 293.18)"  >
<rect style="stroke: none; stroke-width: 1; stroke-dasharray: none; stroke-linecap: butt; stroke-dashoffset: 0; stroke-linejoin: miter; stroke-miterlimit: 4; fill: rgb(0,0,0); fill-rule: nonzero; opacity: 1;" vector-effect="non-scaling-stroke"  x="-7.295" y="-4.845" rx="0" ry="0" width="14.59" height="9.69" />
</g>
<g transform="matrix(1 0 0 1 466.32 293.18)"  >
<rect style="stroke: none; stroke-width: 1; stroke-dasharray: none; stroke-linecap: butt; stroke-dashoffset: 0; stroke-linejoin: miter; stroke-miterlimit: 4; fill: rgb(0,0,0); fill-rule: nonzero; opacity: 1;" vector-effect="non-scaling-stroke"  x="-7.295" y="-4.845" rx="0" ry="0" width="14.59" height="9.69" />
</g>
<g transform="matrix(1 0 0 1 437.16 293.18)"  >
<rect style="stroke: none; stroke-width: 1; stroke-dasharray: none; stroke-linecap: butt; stroke-dashoffset: 0; stroke-linejoin: miter; stroke-miterlimit: 4; fill: rgb(0,0,0); fill-rule: nonzero; opacity: 1;" vector-effect="non-scaling-stroke"  x="-7.295" y="-4.845" rx="0" ry="0" width="14.59" height="9.69" />
</g>
<g transform="matrix(1 0 0 1 495.49 293.18)"  >
<rect style="stroke: none; stroke-width: 1; stroke-dasharray: none; stroke-linecap: butt; stroke-dashoffset: 0; stroke-linejoin: miter; stroke-miterlimit: 4; fill: rgb(0,0,0); fill-rule: nonzero; opacity: 1;" vector-effect="non-scaling-stroke"  x="-7.295" y="-4.845" rx="0" ry="0" width="14.59" height="9.69" />
</g>
<g transform="matrix(1 0 0 1 922.75 629.85)"  >
<rect style="stroke: none; stroke-width: 1; stroke-dasharray: none; stroke-linecap: butt; stroke-dashoffset: 0; stroke-linejoin: miter; stroke-miterlimit: 4; fill: rgb(0,0,0); fill-rule: nonzero; opacity: 1;" vector-effect="non-scaling-stroke"  x="-4.845" y="-7.075" rx="0" ry="0" width="9.69" height="14.15" />
</g>
<g transform="matrix(1 0 0 1 922.75 601.56)"  >
<rect style="stroke: none; stroke-width: 1; stroke-dasharray: none; stroke-linecap: butt; stroke-dashoffset: 0; stroke-linejoin: miter; stroke-miterlimit: 4; fill: rgb(0,0,0); fill-rule: nonzero; opacity: 1;" vector-effect="non-scaling-stroke"  x="-4.845" y="-7.075" rx="0" ry="0" width="9.69" height="14.15" />
</g>
<g transform="matrix(1 0 0 1 922.75 573.27)"  >
<rect style="stroke: none; stroke-width: 1; stroke-dasharray: none; stroke-linecap: butt; stroke-dashoffset: 0; stroke-linejoin: miter; stroke-miterlimit: 4; fill: rgb(0,0,0); fill-rule: nonzero; opacity: 1;" vector-effect="non-scaling-stroke"  x="-4.845" y="-7.075" rx="0" ry="0" width="9.69" height="14.15" />
</g>
<g transform="matrix(1 0 0 1 922.75 516.68)"  >
<rect style="stroke: none; stroke-width: 1; stroke-dasharray: none; stroke-linecap: butt; stroke-dashoffset: 0; stroke-linejoin: miter; stroke-miterlimit: 4; fill: rgb(0,0,0); fill-rule: nonzero; opacity: 1;" vector-effect="non-scaling-stroke"  x="-4.845" y="-7.075" rx="0" ry="0" width="9.69" height="14.15" />
</g>
<g transform="matrix(1 0 0 1 922.75 488.38)"  >
<rect style="stroke: none; stroke-width: 1; stroke-dasharray: none; stroke-linecap: butt; stroke-dashoffset: 0; stroke-linejoin: miter; stroke-miterlimit: 4; fill: rgb(0,0,0); fill-rule: nonzero; opacity: 1;" vector-effect="non-scaling-stroke"  x="-4.845" y="-7.075" rx="0" ry="0" width="9.69" height="14.15" />
</g>
<g transform="matrix(1 0 0 1 922.75 544.97)"  >
<rect style="stroke: none; stroke-width: 1; stroke-dasharray: none; stroke-linecap: butt; stroke-dashoffset: 0; stroke-linejoin: miter; stroke-miterlimit: 4; fill: rgb(0,0,0); fill-rule: nonzero; opacity: 1;" vector-effect="non-scaling-stroke"  x="-4.845" y="-7.075" rx="0" ry="0" width="9.69" height="14.15" />
</g>
<g transform="matrix(1 0 0 1 922.75 658.13)"  >
<rect style="stroke: none; stroke-width: 1; stroke-dasharray: none; stroke-linecap: butt; stroke-dashoffset: 0; stroke-linejoin: miter; stroke-miterlimit: 4; fill: rgb(0,0,0); fill-rule: nonzero; opacity: 1;" vector-effect="non-scaling-stroke"  x="-4.845" y="-7.075" rx="0" ry="0" width="9.69" height="14.15" />
</g>
<g transform="matrix(1 0 0 1 922.75 686.43)"  >
<rect style="stroke: none; stroke-width: 1; stroke-dasharray: none; stroke-linecap: butt; stroke-dashoffset: 0; stroke-linejoin: miter; stroke-miterlimit: 4; fill: rgb(0,0,0); fill-rule: nonzero; opacity: 1;" vector-effect="non-scaling-stroke"  x="-4.845" y="-7.075" rx="0" ry="0" width="9.69" height="14.15" />
</g>
<g transform="matrix(1 0 0 1 921.65 713.59)"  >
<polygon style="stroke: none; stroke-width: 1; stroke-dasharray: none; stroke-linecap: butt; stroke-dashoffset: 0; stroke-linejoin: miter; stroke-miterlimit: 4; fill: rgb(0,0,0); fill-rule: nonzero; opacity: 1;" vector-effect="non-scaling-stroke"  points="-3.74,-3.74 -5.95,-3.74 -5.95,5.95 5.95,5.95 5.95,-5.95 -3.74,-5.95 -3.74,-3.74 " />
</g>
<g transform="matrix(1 0 0 1 890.95 714.7)"  >
<rect style="stroke: none; stroke-width: 1; stroke-dasharray: none; stroke-linecap: butt; stroke-dashoffset: 0; stroke-linejoin: miter; stroke-miterlimit: 4; fill: rgb(0,0,0); fill-rule: nonzero; opacity: 1;" vector-effect="non-scaling-stroke"  x="-8.25" y="-4.845" rx="0" ry="0" width="16.5" height="9.69" />
</g>
<g transform="matrix(1 0 0 1 857.95 714.7)"  >
<rect style="stroke: none; stroke-width: 1; stroke-dasharray: none; stroke-linecap: butt; stroke-dashoffset: 0; stroke-linejoin: miter; stroke-miterlimit: 4; fill: rgb(0,0,0); fill-rule: nonzero; opacity: 1;" vector-effect="non-scaling-stroke"  x="-8.25" y="-4.845" rx="0" ry="0" width="16.5" height="9.69" />
</g>
<g transform="matrix(0 0 0 0 0 0)"  >
<g style=""   >
</g>
</g>
<g transform="matrix(0 0 0 0 0 0)"  >
<g style=""   >
</g>
</g>
<g transform="matrix(NaN NaN NaN NaN 0 0)"  >
<g style=""   >
</g>
</g>
<g transform="matrix(NaN NaN NaN NaN 0 0)"  >
<g style=""   >
</g>
</g>
<g transform="matrix(NaN NaN NaN NaN 0 0)"  >
<g style=""   >
</g>
</g>
</svg>